M48
; DRILL file KiCad 10.0.0 date 2026-08-15T02:37:50
; FORMAT={-:-/ absolute / metric / decimal}
; #@! TF.CreationDate,2026-08-15T02:37:50-04:00
; #@! TF.GenerationSoftware,Kicad,Pcbnew,10.0.0
; #@! TF.FileFunction,MixedPlating,1,2
FMAT,2
METRIC
; #@! TA.AperFunction,Plated,PTH,ViaDrill
T1C0.300
; #@! TA.AperFunction,Plated,PTH,ViaDrill
T2C0.400
; #@! TA.AperFunction,Plated,PTH,ComponentDrill
T3C0.762
; #@! TA.AperFunction,Plated,PTH,ComponentDrill
T4C1.041
%
G90
G05
T1
X95.0Y-165.0
X107.5Y-182.5
X109.104Y-183.307
X116.5Y-178.5
X117.5Y-177.5
X118.5Y-176.5
X121.5Y-183.5
X122.371Y-182.684
X123.5Y-181.5
X134.0Y-176.0
X134.785Y-175.215
X137.5Y-177.0
T2
X86.116Y-146.162
X86.116Y-157.162
X87.884Y-148.338
X91.616Y-135.162
X91.616Y-146.162
X91.616Y-157.162
X91.616Y-168.162
X93.384Y-137.338
X93.384Y-148.338
X93.384Y-159.338
X93.5Y-172.5
X93.6Y-173.5
X94.5Y-169.0
X94.5Y-170.0
X96.0Y-165.0
X97.116Y-135.162
X97.116Y-146.162
X97.116Y-157.162
X97.986Y-167.15
X98.226Y-170.996
X98.884Y-126.338
X98.884Y-137.338
X98.884Y-148.338
X98.884Y-159.338
X99.929Y-168.78
X99.929Y-169.78
X102.585Y-179.192
X102.616Y-124.162
X102.616Y-135.162
X102.616Y-146.162
X102.616Y-157.162
X104.384Y-126.338
X104.384Y-137.338
X104.384Y-148.338
X104.384Y-159.338
X104.5Y-178.5
X105.0Y-167.5
X105.0Y-170.0
X106.0Y-164.8
X108.116Y-124.162
X108.116Y-135.162
X108.116Y-146.162
X108.116Y-157.162
X108.116Y-168.162
X108.116Y-179.162
X109.004Y-170.945
X109.884Y-126.338
X109.884Y-137.338
X109.884Y-148.338
X109.884Y-159.338
X113.616Y-124.162
X113.616Y-135.162
X113.616Y-146.162
X113.616Y-157.162
X113.616Y-168.162
X115.384Y-115.338
X115.384Y-126.338
X115.384Y-137.338
X115.384Y-148.338
X115.384Y-159.338
X115.384Y-170.338
X119.116Y-124.162
X119.116Y-135.162
X119.116Y-146.162
X119.116Y-157.162
X119.116Y-168.162
X120.884Y-115.338
X120.884Y-126.338
X120.884Y-137.338
X120.884Y-148.338
X120.884Y-159.338
X120.884Y-170.338
X124.616Y-124.162
X124.616Y-135.162
X124.616Y-146.162
X124.616Y-157.162
X124.616Y-168.162
X125.275Y-169.837
X126.384Y-115.338
X126.384Y-126.338
X126.384Y-137.338
X126.384Y-148.338
X126.384Y-159.338
X126.5Y-183.0
X130.116Y-124.162
X130.116Y-135.162
X130.116Y-146.162
X130.116Y-157.162
X130.116Y-168.162
X130.116Y-179.162
X131.884Y-126.338
X131.884Y-137.338
X131.884Y-148.338
X131.884Y-159.338
X131.884Y-170.338
X133.0Y-180.0
X135.616Y-124.162
X135.616Y-135.162
X135.616Y-146.162
X135.616Y-157.162
X135.616Y-168.162
X135.616Y-179.162
X137.384Y-126.338
X137.384Y-137.338
X137.384Y-148.338
X137.384Y-159.338
X137.384Y-170.338
X141.116Y-135.162
X141.116Y-146.162
X141.116Y-157.162
X141.116Y-168.162
X141.774Y-156.504
X142.884Y-126.338
X142.884Y-137.338
X142.884Y-148.338
X142.884Y-159.338
X142.884Y-170.338
X146.616Y-135.162
X146.616Y-146.162
X146.616Y-157.162
X146.616Y-168.162
X148.384Y-137.338
X148.384Y-148.338
X148.384Y-159.338
X152.116Y-146.162
X152.116Y-157.162
X153.884Y-148.338
T3
X121.187Y-178.813
T4
X118.5Y-181.5
M30
