%TF.GenerationSoftware,KiCad,Pcbnew,10.0.0*%
%TF.CreationDate,2026-08-15T02:37:49-04:00*%
%TF.ProjectId,v1-ornament-board,76312d6f-726e-4616-9d65-6e742d626f61,rev?*%
%TF.SameCoordinates,Original*%
%TF.FileFunction,Copper,L2,Bot*%
%TF.FilePolarity,Positive*%
%FSLAX46Y46*%
G04 Gerber Fmt 4.6, Leading zero omitted, Abs format (unit mm)*
G04 Created by KiCad (PCBNEW 10.0.0) date 2026-08-15 02:37:49*
%MOMM*%
%LPD*%
G01*
G04 APERTURE LIST*
G04 Aperture macros list*
%AMRoundRect*
0 Rectangle with rounded corners*
0 $1 Rounding radius*
0 $2 $3 $4 $5 $6 $7 $8 $9 X,Y pos of 4 corners*
0 Add a 4 corners polygon primitive as box body*
4,1,4,$2,$3,$4,$5,$6,$7,$8,$9,$2,$3,0*
0 Add four circle primitives for the rounded corners*
1,1,$1+$1,$2,$3*
1,1,$1+$1,$4,$5*
1,1,$1+$1,$6,$7*
1,1,$1+$1,$8,$9*
0 Add four rect primitives between the rounded corners*
20,1,$1+$1,$2,$3,$4,$5,0*
20,1,$1+$1,$4,$5,$6,$7,0*
20,1,$1+$1,$6,$7,$8,$9,0*
20,1,$1+$1,$8,$9,$2,$3,0*%
G04 Aperture macros list end*
%ADD10C,0.250000*%
%TA.AperFunction,NonConductor*%
%ADD11C,0.250000*%
%TD*%
%ADD12C,0.300000*%
%TA.AperFunction,NonConductor*%
%ADD13C,0.300000*%
%TD*%
%TA.AperFunction,ComponentPad*%
%ADD14C,1.270000*%
%TD*%
%TA.AperFunction,ComponentPad*%
%ADD15C,1.549400*%
%TD*%
%TA.AperFunction,SMDPad,CuDef*%
%ADD16RoundRect,0.150000X0.512500X0.150000X-0.512500X0.150000X-0.512500X-0.150000X0.512500X-0.150000X0*%
%TD*%
%TA.AperFunction,SMDPad,CuDef*%
%ADD17RoundRect,0.250000X-0.250000X-1.500000X0.250000X-1.500000X0.250000X1.500000X-0.250000X1.500000X0*%
%TD*%
%TA.AperFunction,SMDPad,CuDef*%
%ADD18RoundRect,0.250001X-0.499999X-1.449999X0.499999X-1.449999X0.499999X1.449999X-0.499999X1.449999X0*%
%TD*%
%TA.AperFunction,SMDPad,CuDef*%
%ADD19RoundRect,0.250000X0.375000X0.625000X-0.375000X0.625000X-0.375000X-0.625000X0.375000X-0.625000X0*%
%TD*%
%TA.AperFunction,SMDPad,CuDef*%
%ADD20RoundRect,0.150000X-0.468458X0.256326X0.256326X-0.468458X0.468458X-0.256326X-0.256326X0.468458X0*%
%TD*%
%TA.AperFunction,SMDPad,CuDef*%
%ADD21RoundRect,0.500000X-0.875000X-0.500000X0.875000X-0.500000X0.875000X0.500000X-0.875000X0.500000X0*%
%TD*%
%TA.AperFunction,SMDPad,CuDef*%
%ADD22RoundRect,0.250000X-1.000000X-0.650000X1.000000X-0.650000X1.000000X0.650000X-1.000000X0.650000X0*%
%TD*%
%TA.AperFunction,ViaPad*%
%ADD23C,0.800000*%
%TD*%
%TA.AperFunction,ViaPad*%
%ADD24C,0.600000*%
%TD*%
%TA.AperFunction,Conductor*%
%ADD25C,0.600000*%
%TD*%
%TA.AperFunction,Conductor*%
%ADD26C,0.200000*%
%TD*%
G04 APERTURE END LIST*
D10*
D11*
X149692669Y-164697952D02*
X149502193Y-165364619D01*
X149502193Y-165364619D02*
X149311717Y-164888428D01*
X149311717Y-164888428D02*
X149121241Y-165364619D01*
X149121241Y-165364619D02*
X148930765Y-164697952D01*
X148168860Y-165317000D02*
X148264098Y-165364619D01*
X148264098Y-165364619D02*
X148454574Y-165364619D01*
X148454574Y-165364619D02*
X148549812Y-165317000D01*
X148549812Y-165317000D02*
X148597431Y-165221761D01*
X148597431Y-165221761D02*
X148597431Y-164840809D01*
X148597431Y-164840809D02*
X148549812Y-164745571D01*
X148549812Y-164745571D02*
X148454574Y-164697952D01*
X148454574Y-164697952D02*
X148264098Y-164697952D01*
X148264098Y-164697952D02*
X148168860Y-164745571D01*
X148168860Y-164745571D02*
X148121241Y-164840809D01*
X148121241Y-164840809D02*
X148121241Y-164936047D01*
X148121241Y-164936047D02*
X148597431Y-165031285D01*
X147549812Y-165364619D02*
X147645050Y-165317000D01*
X147645050Y-165317000D02*
X147692669Y-165221761D01*
X147692669Y-165221761D02*
X147692669Y-164364619D01*
X146740288Y-165364619D02*
X146740288Y-164840809D01*
X146740288Y-164840809D02*
X146787907Y-164745571D01*
X146787907Y-164745571D02*
X146883145Y-164697952D01*
X146883145Y-164697952D02*
X147073621Y-164697952D01*
X147073621Y-164697952D02*
X147168859Y-164745571D01*
X146740288Y-165317000D02*
X146835526Y-165364619D01*
X146835526Y-165364619D02*
X147073621Y-165364619D01*
X147073621Y-165364619D02*
X147168859Y-165317000D01*
X147168859Y-165317000D02*
X147216478Y-165221761D01*
X147216478Y-165221761D02*
X147216478Y-165126523D01*
X147216478Y-165126523D02*
X147168859Y-165031285D01*
X147168859Y-165031285D02*
X147073621Y-164983666D01*
X147073621Y-164983666D02*
X146835526Y-164983666D01*
X146835526Y-164983666D02*
X146740288Y-164936047D01*
X146264097Y-165364619D02*
X146264097Y-164364619D01*
X145835526Y-165364619D02*
X145835526Y-164840809D01*
X145835526Y-164840809D02*
X145883145Y-164745571D01*
X145883145Y-164745571D02*
X145978383Y-164697952D01*
X145978383Y-164697952D02*
X146121240Y-164697952D01*
X146121240Y-164697952D02*
X146216478Y-164745571D01*
X146216478Y-164745571D02*
X146264097Y-164793190D01*
X145359335Y-165269380D02*
X145311716Y-165317000D01*
X145311716Y-165317000D02*
X145359335Y-165364619D01*
X145359335Y-165364619D02*
X145406954Y-165317000D01*
X145406954Y-165317000D02*
X145359335Y-165269380D01*
X145359335Y-165269380D02*
X145359335Y-165364619D01*
X144454574Y-165317000D02*
X144549812Y-165364619D01*
X144549812Y-165364619D02*
X144740288Y-165364619D01*
X144740288Y-165364619D02*
X144835526Y-165317000D01*
X144835526Y-165317000D02*
X144883145Y-165269380D01*
X144883145Y-165269380D02*
X144930764Y-165174142D01*
X144930764Y-165174142D02*
X144930764Y-164888428D01*
X144930764Y-164888428D02*
X144883145Y-164793190D01*
X144883145Y-164793190D02*
X144835526Y-164745571D01*
X144835526Y-164745571D02*
X144740288Y-164697952D01*
X144740288Y-164697952D02*
X144549812Y-164697952D01*
X144549812Y-164697952D02*
X144454574Y-164745571D01*
X143883145Y-165364619D02*
X143978383Y-165317000D01*
X143978383Y-165317000D02*
X144026002Y-165269380D01*
X144026002Y-165269380D02*
X144073621Y-165174142D01*
X144073621Y-165174142D02*
X144073621Y-164888428D01*
X144073621Y-164888428D02*
X144026002Y-164793190D01*
X144026002Y-164793190D02*
X143978383Y-164745571D01*
X143978383Y-164745571D02*
X143883145Y-164697952D01*
X143883145Y-164697952D02*
X143740288Y-164697952D01*
X143740288Y-164697952D02*
X143645050Y-164745571D01*
X143645050Y-164745571D02*
X143597431Y-164793190D01*
X143597431Y-164793190D02*
X143549812Y-164888428D01*
X143549812Y-164888428D02*
X143549812Y-165174142D01*
X143549812Y-165174142D02*
X143597431Y-165269380D01*
X143597431Y-165269380D02*
X143645050Y-165317000D01*
X143645050Y-165317000D02*
X143740288Y-165364619D01*
X143740288Y-165364619D02*
X143883145Y-165364619D01*
X143121240Y-165364619D02*
X143121240Y-164697952D01*
X143121240Y-164793190D02*
X143073621Y-164745571D01*
X143073621Y-164745571D02*
X142978383Y-164697952D01*
X142978383Y-164697952D02*
X142835526Y-164697952D01*
X142835526Y-164697952D02*
X142740288Y-164745571D01*
X142740288Y-164745571D02*
X142692669Y-164840809D01*
X142692669Y-164840809D02*
X142692669Y-165364619D01*
X142692669Y-164840809D02*
X142645050Y-164745571D01*
X142645050Y-164745571D02*
X142549812Y-164697952D01*
X142549812Y-164697952D02*
X142406955Y-164697952D01*
X142406955Y-164697952D02*
X142311716Y-164745571D01*
X142311716Y-164745571D02*
X142264097Y-164840809D01*
X142264097Y-164840809D02*
X142264097Y-165364619D01*
X141073622Y-164317000D02*
X141930764Y-165602714D01*
X140835526Y-165364619D02*
X140311717Y-164697952D01*
X140835526Y-164697952D02*
X140311717Y-165364619D01*
X139930764Y-165364619D02*
X139930764Y-164697952D01*
X139930764Y-164793190D02*
X139883145Y-164745571D01*
X139883145Y-164745571D02*
X139787907Y-164697952D01*
X139787907Y-164697952D02*
X139645050Y-164697952D01*
X139645050Y-164697952D02*
X139549812Y-164745571D01*
X139549812Y-164745571D02*
X139502193Y-164840809D01*
X139502193Y-164840809D02*
X139502193Y-165364619D01*
X139502193Y-164840809D02*
X139454574Y-164745571D01*
X139454574Y-164745571D02*
X139359336Y-164697952D01*
X139359336Y-164697952D02*
X139216479Y-164697952D01*
X139216479Y-164697952D02*
X139121240Y-164745571D01*
X139121240Y-164745571D02*
X139073621Y-164840809D01*
X139073621Y-164840809D02*
X139073621Y-165364619D01*
X138168860Y-165364619D02*
X138168860Y-164840809D01*
X138168860Y-164840809D02*
X138216479Y-164745571D01*
X138216479Y-164745571D02*
X138311717Y-164697952D01*
X138311717Y-164697952D02*
X138502193Y-164697952D01*
X138502193Y-164697952D02*
X138597431Y-164745571D01*
X138168860Y-165317000D02*
X138264098Y-165364619D01*
X138264098Y-165364619D02*
X138502193Y-165364619D01*
X138502193Y-165364619D02*
X138597431Y-165317000D01*
X138597431Y-165317000D02*
X138645050Y-165221761D01*
X138645050Y-165221761D02*
X138645050Y-165126523D01*
X138645050Y-165126523D02*
X138597431Y-165031285D01*
X138597431Y-165031285D02*
X138502193Y-164983666D01*
X138502193Y-164983666D02*
X138264098Y-164983666D01*
X138264098Y-164983666D02*
X138168860Y-164936047D01*
X137740288Y-165317000D02*
X137645050Y-165364619D01*
X137645050Y-165364619D02*
X137454574Y-165364619D01*
X137454574Y-165364619D02*
X137359336Y-165317000D01*
X137359336Y-165317000D02*
X137311717Y-165221761D01*
X137311717Y-165221761D02*
X137311717Y-165174142D01*
X137311717Y-165174142D02*
X137359336Y-165078904D01*
X137359336Y-165078904D02*
X137454574Y-165031285D01*
X137454574Y-165031285D02*
X137597431Y-165031285D01*
X137597431Y-165031285D02*
X137692669Y-164983666D01*
X137692669Y-164983666D02*
X137740288Y-164888428D01*
X137740288Y-164888428D02*
X137740288Y-164840809D01*
X137740288Y-164840809D02*
X137692669Y-164745571D01*
X137692669Y-164745571D02*
X137597431Y-164697952D01*
X137597431Y-164697952D02*
X137454574Y-164697952D01*
X137454574Y-164697952D02*
X137359336Y-164745571D01*
X136930764Y-164459857D02*
X136883145Y-164412238D01*
X136883145Y-164412238D02*
X136787907Y-164364619D01*
X136787907Y-164364619D02*
X136549812Y-164364619D01*
X136549812Y-164364619D02*
X136454574Y-164412238D01*
X136454574Y-164412238D02*
X136406955Y-164459857D01*
X136406955Y-164459857D02*
X136359336Y-164555095D01*
X136359336Y-164555095D02*
X136359336Y-164650333D01*
X136359336Y-164650333D02*
X136406955Y-164793190D01*
X136406955Y-164793190D02*
X136978383Y-165364619D01*
X136978383Y-165364619D02*
X136359336Y-165364619D01*
X135740288Y-164364619D02*
X135645050Y-164364619D01*
X135645050Y-164364619D02*
X135549812Y-164412238D01*
X135549812Y-164412238D02*
X135502193Y-164459857D01*
X135502193Y-164459857D02*
X135454574Y-164555095D01*
X135454574Y-164555095D02*
X135406955Y-164745571D01*
X135406955Y-164745571D02*
X135406955Y-164983666D01*
X135406955Y-164983666D02*
X135454574Y-165174142D01*
X135454574Y-165174142D02*
X135502193Y-165269380D01*
X135502193Y-165269380D02*
X135549812Y-165317000D01*
X135549812Y-165317000D02*
X135645050Y-165364619D01*
X135645050Y-165364619D02*
X135740288Y-165364619D01*
X135740288Y-165364619D02*
X135835526Y-165317000D01*
X135835526Y-165317000D02*
X135883145Y-165269380D01*
X135883145Y-165269380D02*
X135930764Y-165174142D01*
X135930764Y-165174142D02*
X135978383Y-164983666D01*
X135978383Y-164983666D02*
X135978383Y-164745571D01*
X135978383Y-164745571D02*
X135930764Y-164555095D01*
X135930764Y-164555095D02*
X135883145Y-164459857D01*
X135883145Y-164459857D02*
X135835526Y-164412238D01*
X135835526Y-164412238D02*
X135740288Y-164364619D01*
X135026002Y-164459857D02*
X134978383Y-164412238D01*
X134978383Y-164412238D02*
X134883145Y-164364619D01*
X134883145Y-164364619D02*
X134645050Y-164364619D01*
X134645050Y-164364619D02*
X134549812Y-164412238D01*
X134549812Y-164412238D02*
X134502193Y-164459857D01*
X134502193Y-164459857D02*
X134454574Y-164555095D01*
X134454574Y-164555095D02*
X134454574Y-164650333D01*
X134454574Y-164650333D02*
X134502193Y-164793190D01*
X134502193Y-164793190D02*
X135073621Y-165364619D01*
X135073621Y-165364619D02*
X134454574Y-165364619D01*
X133597431Y-164364619D02*
X133787907Y-164364619D01*
X133787907Y-164364619D02*
X133883145Y-164412238D01*
X133883145Y-164412238D02*
X133930764Y-164459857D01*
X133930764Y-164459857D02*
X134026002Y-164602714D01*
X134026002Y-164602714D02*
X134073621Y-164793190D01*
X134073621Y-164793190D02*
X134073621Y-165174142D01*
X134073621Y-165174142D02*
X134026002Y-165269380D01*
X134026002Y-165269380D02*
X133978383Y-165317000D01*
X133978383Y-165317000D02*
X133883145Y-165364619D01*
X133883145Y-165364619D02*
X133692669Y-165364619D01*
X133692669Y-165364619D02*
X133597431Y-165317000D01*
X133597431Y-165317000D02*
X133549812Y-165269380D01*
X133549812Y-165269380D02*
X133502193Y-165174142D01*
X133502193Y-165174142D02*
X133502193Y-164936047D01*
X133502193Y-164936047D02*
X133549812Y-164840809D01*
X133549812Y-164840809D02*
X133597431Y-164793190D01*
X133597431Y-164793190D02*
X133692669Y-164745571D01*
X133692669Y-164745571D02*
X133883145Y-164745571D01*
X133883145Y-164745571D02*
X133978383Y-164793190D01*
X133978383Y-164793190D02*
X134026002Y-164840809D01*
X134026002Y-164840809D02*
X134073621Y-164936047D01*
D12*
D13*
X144214285Y-166470996D02*
X143214285Y-167970996D01*
X143214285Y-166470996D02*
X144214285Y-167970996D01*
X142642857Y-167970996D02*
X142642857Y-166470996D01*
X142642857Y-166470996D02*
X142142857Y-167542425D01*
X142142857Y-167542425D02*
X141642857Y-166470996D01*
X141642857Y-166470996D02*
X141642857Y-167970996D01*
X140999999Y-167542425D02*
X140285714Y-167542425D01*
X141142856Y-167970996D02*
X140642856Y-166470996D01*
X140642856Y-166470996D02*
X140142856Y-167970996D01*
X139714285Y-167899568D02*
X139500000Y-167970996D01*
X139500000Y-167970996D02*
X139142857Y-167970996D01*
X139142857Y-167970996D02*
X139000000Y-167899568D01*
X139000000Y-167899568D02*
X138928571Y-167828139D01*
X138928571Y-167828139D02*
X138857142Y-167685282D01*
X138857142Y-167685282D02*
X138857142Y-167542425D01*
X138857142Y-167542425D02*
X138928571Y-167399568D01*
X138928571Y-167399568D02*
X139000000Y-167328139D01*
X139000000Y-167328139D02*
X139142857Y-167256710D01*
X139142857Y-167256710D02*
X139428571Y-167185282D01*
X139428571Y-167185282D02*
X139571428Y-167113853D01*
X139571428Y-167113853D02*
X139642857Y-167042425D01*
X139642857Y-167042425D02*
X139714285Y-166899568D01*
X139714285Y-166899568D02*
X139714285Y-166756710D01*
X139714285Y-166756710D02*
X139642857Y-166613853D01*
X139642857Y-166613853D02*
X139571428Y-166542425D01*
X139571428Y-166542425D02*
X139428571Y-166470996D01*
X139428571Y-166470996D02*
X139071428Y-166470996D01*
X139071428Y-166470996D02*
X138857142Y-166542425D01*
X144071427Y-169028769D02*
X143999999Y-168957341D01*
X143999999Y-168957341D02*
X143857142Y-168885912D01*
X143857142Y-168885912D02*
X143499999Y-168885912D01*
X143499999Y-168885912D02*
X143357142Y-168957341D01*
X143357142Y-168957341D02*
X143285713Y-169028769D01*
X143285713Y-169028769D02*
X143214284Y-169171626D01*
X143214284Y-169171626D02*
X143214284Y-169314484D01*
X143214284Y-169314484D02*
X143285713Y-169528769D01*
X143285713Y-169528769D02*
X144142856Y-170385912D01*
X144142856Y-170385912D02*
X143214284Y-170385912D01*
X142285713Y-168885912D02*
X142142856Y-168885912D01*
X142142856Y-168885912D02*
X141999999Y-168957341D01*
X141999999Y-168957341D02*
X141928571Y-169028769D01*
X141928571Y-169028769D02*
X141857142Y-169171626D01*
X141857142Y-169171626D02*
X141785713Y-169457341D01*
X141785713Y-169457341D02*
X141785713Y-169814484D01*
X141785713Y-169814484D02*
X141857142Y-170100198D01*
X141857142Y-170100198D02*
X141928571Y-170243055D01*
X141928571Y-170243055D02*
X141999999Y-170314484D01*
X141999999Y-170314484D02*
X142142856Y-170385912D01*
X142142856Y-170385912D02*
X142285713Y-170385912D01*
X142285713Y-170385912D02*
X142428571Y-170314484D01*
X142428571Y-170314484D02*
X142499999Y-170243055D01*
X142499999Y-170243055D02*
X142571428Y-170100198D01*
X142571428Y-170100198D02*
X142642856Y-169814484D01*
X142642856Y-169814484D02*
X142642856Y-169457341D01*
X142642856Y-169457341D02*
X142571428Y-169171626D01*
X142571428Y-169171626D02*
X142499999Y-169028769D01*
X142499999Y-169028769D02*
X142428571Y-168957341D01*
X142428571Y-168957341D02*
X142285713Y-168885912D01*
X141214285Y-169028769D02*
X141142857Y-168957341D01*
X141142857Y-168957341D02*
X141000000Y-168885912D01*
X141000000Y-168885912D02*
X140642857Y-168885912D01*
X140642857Y-168885912D02*
X140500000Y-168957341D01*
X140500000Y-168957341D02*
X140428571Y-169028769D01*
X140428571Y-169028769D02*
X140357142Y-169171626D01*
X140357142Y-169171626D02*
X140357142Y-169314484D01*
X140357142Y-169314484D02*
X140428571Y-169528769D01*
X140428571Y-169528769D02*
X141285714Y-170385912D01*
X141285714Y-170385912D02*
X140357142Y-170385912D01*
X139071429Y-168885912D02*
X139357143Y-168885912D01*
X139357143Y-168885912D02*
X139500000Y-168957341D01*
X139500000Y-168957341D02*
X139571429Y-169028769D01*
X139571429Y-169028769D02*
X139714286Y-169243055D01*
X139714286Y-169243055D02*
X139785714Y-169528769D01*
X139785714Y-169528769D02*
X139785714Y-170100198D01*
X139785714Y-170100198D02*
X139714286Y-170243055D01*
X139714286Y-170243055D02*
X139642857Y-170314484D01*
X139642857Y-170314484D02*
X139500000Y-170385912D01*
X139500000Y-170385912D02*
X139214286Y-170385912D01*
X139214286Y-170385912D02*
X139071429Y-170314484D01*
X139071429Y-170314484D02*
X139000000Y-170243055D01*
X139000000Y-170243055D02*
X138928571Y-170100198D01*
X138928571Y-170100198D02*
X138928571Y-169743055D01*
X138928571Y-169743055D02*
X139000000Y-169600198D01*
X139000000Y-169600198D02*
X139071429Y-169528769D01*
X139071429Y-169528769D02*
X139214286Y-169457341D01*
X139214286Y-169457341D02*
X139500000Y-169457341D01*
X139500000Y-169457341D02*
X139642857Y-169528769D01*
X139642857Y-169528769D02*
X139714286Y-169600198D01*
X139714286Y-169600198D02*
X139785714Y-169743055D01*
X143785713Y-171300828D02*
X143285713Y-172800828D01*
X143285713Y-172800828D02*
X142785713Y-171300828D01*
X141499999Y-172800828D02*
X142357142Y-172800828D01*
X141928571Y-172800828D02*
X141928571Y-171300828D01*
X141928571Y-171300828D02*
X142071428Y-171515114D01*
X142071428Y-171515114D02*
X142214285Y-171657971D01*
X142214285Y-171657971D02*
X142357142Y-171729400D01*
X140857143Y-172657971D02*
X140785714Y-172729400D01*
X140785714Y-172729400D02*
X140857143Y-172800828D01*
X140857143Y-172800828D02*
X140928571Y-172729400D01*
X140928571Y-172729400D02*
X140857143Y-172657971D01*
X140857143Y-172657971D02*
X140857143Y-172800828D01*
X139857142Y-171300828D02*
X139714285Y-171300828D01*
X139714285Y-171300828D02*
X139571428Y-171372257D01*
X139571428Y-171372257D02*
X139500000Y-171443685D01*
X139500000Y-171443685D02*
X139428571Y-171586542D01*
X139428571Y-171586542D02*
X139357142Y-171872257D01*
X139357142Y-171872257D02*
X139357142Y-172229400D01*
X139357142Y-172229400D02*
X139428571Y-172515114D01*
X139428571Y-172515114D02*
X139500000Y-172657971D01*
X139500000Y-172657971D02*
X139571428Y-172729400D01*
X139571428Y-172729400D02*
X139714285Y-172800828D01*
X139714285Y-172800828D02*
X139857142Y-172800828D01*
X139857142Y-172800828D02*
X140000000Y-172729400D01*
X140000000Y-172729400D02*
X140071428Y-172657971D01*
X140071428Y-172657971D02*
X140142857Y-172515114D01*
X140142857Y-172515114D02*
X140214285Y-172229400D01*
X140214285Y-172229400D02*
X140214285Y-171872257D01*
X140214285Y-171872257D02*
X140142857Y-171586542D01*
X140142857Y-171586542D02*
X140071428Y-171443685D01*
X140071428Y-171443685D02*
X140000000Y-171372257D01*
X140000000Y-171372257D02*
X139857142Y-171300828D01*
D14*
%TO.P,SW1,9*%
%TO.N,N/C*%
X121187006Y-178812994D03*
D15*
%TO.P,SW1,10*%
X118500000Y-181500000D03*
%TD*%
D16*
%TO.P,U3,1,STAT_1*%
%TO.N,/STAT*%
X98137500Y-168050001D03*
%TO.P,U3,2,V_{SS}_2*%
%TO.N,GND*%
X98137500Y-169000000D03*
%TO.P,U3,3,V_{BAT}_3*%
%TO.N,/VBATT*%
X98137500Y-169949999D03*
%TO.P,U3,4,V_{DD}_4*%
%TO.N,+5V*%
X95862500Y-169949999D03*
%TO.P,U3,5,PROG_5*%
%TO.N,/PROG*%
X95862500Y-168050001D03*
%TD*%
D17*
%TO.P,J1,1,Pin_1_1*%
%TO.N,/VBATT*%
X103000000Y-168850000D03*
%TO.P,J1,2,Pin_2_2*%
%TO.N,GND*%
X105000000Y-168850000D03*
D18*
%TO.P,J1,MP*%
%TO.N,N/C*%
X100650000Y-163100000D03*
X107350000Y-163100000D03*
%TD*%
D19*
%TO.P,F1,1*%
%TO.N,+5V*%
X96399999Y-173000000D03*
%TO.P,F1,2*%
%TO.N,/+5V_LED*%
X93600001Y-173000000D03*
%TD*%
D20*
%TO.P,U2,1*%
%TO.N,GND*%
X132523915Y-174367417D03*
%TO.P,U2,2*%
%TO.N,/LED_DATA_IN*%
X133195666Y-173695666D03*
%TO.P,U2,3,GND_3*%
%TO.N,GND*%
X133867417Y-173023915D03*
%TO.P,U2,4*%
%TO.N,/LED_DATA_OUT*%
X135476085Y-174632583D03*
%TO.P,U2,5,VCC_5*%
%TO.N,+5V*%
X134132583Y-175976085D03*
%TD*%
D21*
%TO.P,U1,1,D0_1*%
%TO.N,/JOY_LEFT*%
X110979228Y-183517086D03*
%TO.P,U1,2,D1_2*%
%TO.N,/JOY_RIGHT*%
X110979228Y-180977086D03*
%TO.P,U1,3,D2_3*%
%TO.N,/JOY_DOWN*%
X110979228Y-178437086D03*
%TO.P,U1,4,D3_4*%
%TO.N,/JOY_SELECT*%
X110979228Y-175897086D03*
%TO.P,U1,5,D4_5*%
%TO.N,unconnected-(U1-D4-Pad5)*%
X110979228Y-173357086D03*
%TO.P,U1,6,D5_6*%
%TO.N,unconnected-(U1-D5-Pad6)*%
X110979228Y-170817086D03*
%TO.P,U1,7,D6_7*%
%TO.N,/JOY_UP*%
X110979228Y-168277086D03*
%TO.P,U1,8,D7_8*%
%TO.N,unconnected-(U1-D7-Pad8)*%
X127144228Y-168277086D03*
%TO.P,U1,9,D8_9*%
%TO.N,unconnected-(U1-D8-Pad9)*%
X127144228Y-170817086D03*
%TO.P,U1,10,D9_10*%
%TO.N,/LED_DATA_IN*%
X127144228Y-173357086D03*
%TO.P,U1,11,D10_11*%
%TO.N,unconnected-(U1-D10-Pad11)*%
X127144228Y-175897086D03*
%TO.P,U1,12,3V3_OUT_12*%
%TO.N,unconnected-(U1-3V3_OUT-Pad12)*%
X127144228Y-178437086D03*
%TO.P,U1,13,GND_13*%
%TO.N,GND*%
X127144228Y-180977086D03*
%TO.P,U1,14,VBUS_14*%
%TO.N,+5V*%
X127144228Y-183517086D03*
%TD*%
D22*
%TO.P,D123,1,K_1*%
%TO.N,+5V*%
X98999999Y-173000000D03*
%TO.P,D123,2,A_2*%
%TO.N,/VBATT*%
X103000001Y-173000000D03*
%TD*%
D23*
%TO.N,GND*%
X108116116Y-124161701D03*
X120883884Y-126338299D03*
X98226274Y-170995908D03*
X124616116Y-135161701D03*
X126383884Y-137338299D03*
X120883884Y-170338299D03*
X102616116Y-157161701D03*
X108116116Y-146161701D03*
X102616116Y-135161701D03*
X115383884Y-159338299D03*
X137383884Y-148338299D03*
X131883884Y-159338299D03*
X109004228Y-170944511D03*
X86116116Y-146161701D03*
X104500000Y-178500000D03*
X97116116Y-135161701D03*
X135616116Y-135161701D03*
X131883884Y-148338299D03*
X124616116Y-124161701D03*
X130116116Y-146161701D03*
X142883884Y-137338299D03*
X93383884Y-137338299D03*
X141116116Y-146161701D03*
X152116116Y-157161701D03*
X142883884Y-170338299D03*
X135616116Y-157161701D03*
X141116116Y-168161701D03*
X124616116Y-157161701D03*
X119116116Y-124161701D03*
X137383884Y-126338299D03*
X104383884Y-137338299D03*
X124616116Y-168161701D03*
X137383884Y-137338299D03*
X131883884Y-126338299D03*
X108116116Y-157161701D03*
X109883884Y-126338299D03*
X120883884Y-159338299D03*
X135616116Y-179161701D03*
X141773726Y-156504092D03*
X91616116Y-157161701D03*
X131883884Y-137338299D03*
X104383884Y-159338299D03*
X120883884Y-137338299D03*
X113616116Y-157161701D03*
X105000000Y-170000000D03*
X137383884Y-159338299D03*
X130116116Y-179161701D03*
X141116116Y-157161701D03*
X105000000Y-167500000D03*
X119116116Y-168161701D03*
X113616116Y-146161701D03*
X93383884Y-159338299D03*
X86116116Y-157161701D03*
X135616116Y-146161701D03*
X148383884Y-159338299D03*
X120883884Y-148338299D03*
X130116116Y-135161701D03*
X148383884Y-148338299D03*
X98883884Y-148338299D03*
X91616116Y-146161701D03*
X130116116Y-124161701D03*
X104383884Y-148338299D03*
X99929272Y-168779868D03*
X113616116Y-168161701D03*
X119116116Y-146161701D03*
X124616116Y-146161701D03*
X152116116Y-146161701D03*
X119116116Y-135161701D03*
X142883884Y-126338299D03*
X126383884Y-148338299D03*
X142883884Y-148338299D03*
X115383884Y-170338299D03*
X98883884Y-159338299D03*
X135616116Y-168161701D03*
X142883884Y-159338299D03*
X96000000Y-165000000D03*
X94500000Y-169000000D03*
X120883884Y-115338299D03*
X141116116Y-135161701D03*
D24*
X122371409Y-182684403D03*
D23*
X126383884Y-159338299D03*
X102616116Y-124161701D03*
X104383884Y-126338299D03*
X119116116Y-157161701D03*
X108116116Y-179161701D03*
X113616116Y-124161701D03*
X109883884Y-137338299D03*
X93383884Y-148338299D03*
X146616116Y-135161701D03*
X126383884Y-126338299D03*
X97986393Y-167150002D03*
X97116116Y-157161701D03*
X98883884Y-126338299D03*
X109883884Y-159338299D03*
X146616116Y-146161701D03*
X102616116Y-146161701D03*
X146616116Y-157161701D03*
X126383884Y-115338299D03*
X115383884Y-126338299D03*
X97116116Y-146161701D03*
X153883884Y-148338299D03*
X133000000Y-180000000D03*
X115383884Y-148338299D03*
X109883884Y-148338299D03*
D24*
X134785355Y-175214646D03*
D23*
X131883884Y-170338299D03*
X91616116Y-135161701D03*
X91616116Y-168161701D03*
X87883884Y-148338299D03*
X115383884Y-115338299D03*
X113616116Y-135161701D03*
X130116116Y-157161701D03*
X135616116Y-124161701D03*
X108116116Y-135161701D03*
X108116116Y-168161701D03*
X146616116Y-168161701D03*
X148383884Y-137338299D03*
X102585341Y-179192476D03*
X98883884Y-137338299D03*
X115383884Y-137338299D03*
X125275303Y-169836520D03*
X137383884Y-170338299D03*
X130116116Y-168161701D03*
X106000000Y-164800000D03*
%TO.N,/+5V_LED*%
X93500000Y-172500000D03*
X93600001Y-173500000D03*
D24*
%TO.N,/PROG*%
X95000000Y-165000000D03*
%TO.N,+5V*%
X134000000Y-176000000D03*
D23*
X126500000Y-183000000D03*
D24*
X107500000Y-182500000D03*
D23*
X94500000Y-170000000D03*
%TO.N,/VBATT*%
X99929272Y-169779868D03*
D24*
%TO.N,/LED_DATA_OUT*%
X137500000Y-177000000D03*
%TO.N,/JOY_UP*%
X118500000Y-176500000D03*
%TO.N,/JOY_SELECT*%
X117500000Y-177500000D03*
%TO.N,/JOY_DOWN*%
X116500000Y-178500000D03*
%TO.N,/JOY_LEFT*%
X123500000Y-181500000D03*
%TO.N,/JOY_RIGHT*%
X121500000Y-183500000D03*
%TO.N,/STAT*%
X109104229Y-183307200D03*
%TD*%
%TO.N,GND*%
D25*
X96000000Y-165000000D02*
X95800000Y-165000000D01*
D26*
X134187772Y-174617063D02*
X134785355Y-175214646D01*
X134117063Y-173273561D02*
X133867417Y-173023915D01*
X132773561Y-174617063D02*
X134187772Y-174617063D01*
X134785355Y-175214646D02*
X134117063Y-174546354D01*
X134117063Y-174546354D02*
X134117063Y-173273561D01*
X132523915Y-174367417D02*
X132773561Y-174617063D01*
%TO.N,/PROG*%
X95000000Y-167187501D02*
X95000000Y-165000000D01*
X95862500Y-168050001D02*
X95000000Y-167187501D01*
%TO.N,+5V*%
D25*
X95862500Y-169949999D02*
X95862500Y-172462501D01*
D26*
X134000000Y-180000000D02*
X130482914Y-183517086D01*
D25*
X109682744Y-185017086D02*
X125644228Y-185017086D01*
X95812499Y-170000000D02*
X95862500Y-169949999D01*
X127000000Y-183661314D02*
X127144228Y-183517086D01*
X94500000Y-170000000D02*
X95812499Y-170000000D01*
X96399999Y-173000000D02*
X98999999Y-173000000D01*
X98999999Y-173000000D02*
X98999999Y-174334341D01*
X98999999Y-174334341D02*
X109682744Y-185017086D01*
X127000000Y-184000000D02*
X127000000Y-183661314D01*
D26*
X130482914Y-183517086D02*
X127144228Y-183517086D01*
X134023915Y-175976085D02*
X134000000Y-176000000D01*
X134132583Y-175976085D02*
X134023915Y-175976085D01*
X134000000Y-176000000D02*
X134000000Y-180000000D01*
X134000000Y-176000000D02*
X134108668Y-176000000D01*
D25*
X125644228Y-185017086D02*
X127144228Y-183517086D01*
D26*
X134108668Y-176000000D02*
X134132583Y-175976085D01*
D25*
X95862500Y-172462501D02*
X96399999Y-173000000D01*
%TO.N,/VBATT*%
X98137500Y-169949999D02*
X101900001Y-169949999D01*
X101900001Y-169949999D02*
X103000000Y-168850000D01*
X103000000Y-168850000D02*
X103000001Y-173000000D01*
%TO.N,/LED_DATA_OUT*%
D26*
X137500000Y-176656498D02*
X137500000Y-177000000D01*
X135476085Y-174632583D02*
X137500000Y-176656498D01*
%TO.N,/JOY_UP*%
X114000000Y-176500000D02*
X118500000Y-176500000D01*
X112654228Y-175154228D02*
X114000000Y-176500000D01*
X112654228Y-169952086D02*
X112654228Y-175154228D01*
X110979228Y-168277086D02*
X112654228Y-169952086D01*
%TO.N,/JOY_SELECT*%
X113000000Y-177500000D02*
X117500000Y-177500000D01*
X111397086Y-175897086D02*
X113000000Y-177500000D01*
X110979228Y-175897086D02*
X111397086Y-175897086D01*
%TO.N,/JOY_DOWN*%
X110979228Y-178437086D02*
X116437086Y-178437086D01*
X116437086Y-178437086D02*
X116500000Y-178500000D01*
%TO.N,/JOY_LEFT*%
X111562142Y-184100000D02*
X121804341Y-184100000D01*
X121804341Y-184100000D02*
X123500000Y-182404341D01*
X123500000Y-182404341D02*
X123500000Y-181500000D01*
X110979228Y-183517086D02*
X111562142Y-184100000D01*
%TO.N,/JOY_RIGHT*%
X110979228Y-180977086D02*
X113502142Y-183500000D01*
X113502142Y-183500000D02*
X121500000Y-183500000D01*
%TO.N,/STAT*%
X98949999Y-168050001D02*
X101500000Y-165500000D01*
X109104229Y-179104229D02*
X109104229Y-183307200D01*
X101500000Y-165500000D02*
X107000000Y-165500000D01*
X98137500Y-168050001D02*
X98949999Y-168050001D01*
X107000000Y-165500000D02*
X107000000Y-177000000D01*
X107000000Y-177000000D02*
X109104229Y-179104229D01*
%TO.N,/LED_DATA_IN*%
X132857086Y-173357086D02*
X133195666Y-173695666D01*
X127144228Y-173357086D02*
X132857086Y-173357086D01*
%TD*%
%TA.AperFunction,Conductor*%
%TO.N,GND*%
G36*
X120137534Y-112656753D02*
G01*
X120682852Y-112662744D01*
X120684508Y-112662775D01*
X121229490Y-112676746D01*
X121231305Y-112676806D01*
X121775979Y-112698755D01*
X121777718Y-112698838D01*
X122322094Y-112728767D01*
X122323879Y-112728878D01*
X122867745Y-112766775D01*
X122869365Y-112766900D01*
X123412726Y-112812768D01*
X123414450Y-112812926D01*
X123957071Y-112866745D01*
X123958686Y-112866918D01*
X124500460Y-112928679D01*
X124502086Y-112928877D01*
X125042877Y-112998562D01*
X125044497Y-112998783D01*
X125584316Y-113076397D01*
X125585870Y-113076633D01*
X126124445Y-113162137D01*
X126126062Y-113162406D01*
X126663223Y-113255771D01*
X126664953Y-113256085D01*
X127200700Y-113357307D01*
X127202290Y-113357620D01*
X127420468Y-113402161D01*
X127482214Y-113434858D01*
X127513805Y-113485991D01*
X127518704Y-113501358D01*
X127520336Y-113506927D01*
X127533607Y-113556453D01*
X127536234Y-113562795D01*
X127540231Y-113571842D01*
X127543160Y-113578072D01*
X127570853Y-113621236D01*
X127570853Y-113621237D01*
X127572421Y-113623682D01*
X127599500Y-113670583D01*
X127607901Y-113678984D01*
X127614320Y-113688989D01*
X127652249Y-113723523D01*
X127652248Y-113723523D01*
X127654392Y-113725475D01*
X127692686Y-113763769D01*
X127702975Y-113769709D01*
X127710543Y-113776599D01*
X127711764Y-113777711D01*
X127757332Y-113801248D01*
X127762391Y-113804013D01*
X127789103Y-113819435D01*
X127806810Y-113829659D01*
X127806811Y-113829659D01*
X127806814Y-113829661D01*
X127818294Y-113832737D01*
X127828851Y-113838190D01*
X127881771Y-113849745D01*
X127934108Y-113863769D01*
X127934109Y-113863769D01*
X127942167Y-113864830D01*
X127942087Y-113865436D01*
X127956164Y-113867072D01*
X129068866Y-114129172D01*
X129072735Y-114130150D01*
X130236751Y-114444838D01*
X130240626Y-114445954D01*
X131393696Y-114798518D01*
X131397548Y-114799765D01*
X132538520Y-115189855D01*
X132542236Y-115191194D01*
X133669881Y-115618391D01*
X133673551Y-115619850D01*
X134786623Y-116083685D01*
X134790299Y-116085288D01*
X135887557Y-116585240D01*
X135891192Y-116586969D01*
X136971533Y-117122535D01*
X136975063Y-117124357D01*
X137798690Y-117566776D01*
X138037318Y-117694958D01*
X138040858Y-117696935D01*
X139083847Y-118301934D01*
X139087321Y-118304026D01*
X140109973Y-118942801D01*
X140113345Y-118944984D01*
X141114613Y-119616884D01*
X141117906Y-119619173D01*
X142096647Y-120323430D01*
X142099899Y-120325852D01*
X143055073Y-121061717D01*
X143058244Y-121064244D01*
X143988837Y-121830933D01*
X143991913Y-121833552D01*
X144657074Y-122419099D01*
X144896961Y-122630274D01*
X144899960Y-122633002D01*
X145778478Y-123458888D01*
X145781386Y-123461713D01*
X146632417Y-124315862D01*
X146635232Y-124318781D01*
X147457899Y-125200315D01*
X147460616Y-125203324D01*
X148253999Y-126111255D01*
X148256617Y-126114351D01*
X149019924Y-127047775D01*
X149022439Y-127050956D01*
X149754782Y-128008785D01*
X149757192Y-128012046D01*
X150457860Y-128993352D01*
X150460162Y-128996689D01*
X151128378Y-130000381D01*
X151130569Y-130003793D01*
X151765581Y-131028748D01*
X151767660Y-131032229D01*
X152212734Y-131806022D01*
X152219405Y-131817620D01*
X152368841Y-132077424D01*
X152370805Y-132080971D01*
X152937503Y-133145282D01*
X152939349Y-133148891D01*
X153470929Y-134231123D01*
X153472657Y-134234791D01*
X153968583Y-135333850D01*
X153970190Y-135337573D01*
X154429906Y-136452228D01*
X154431391Y-136456001D01*
X154854437Y-137585139D01*
X154855797Y-137588959D01*
X155241685Y-138731275D01*
X155242920Y-138735137D01*
X155591270Y-139889508D01*
X155592377Y-139893408D01*
X155902785Y-141058491D01*
X155903765Y-141062425D01*
X156175930Y-142237097D01*
X156176780Y-142241062D01*
X156410382Y-143423937D01*
X156411103Y-143427927D01*
X156605918Y-144617875D01*
X156606507Y-144621886D01*
X156762306Y-145817493D01*
X156762765Y-145821522D01*
X156879398Y-147021654D01*
X156879724Y-147025695D01*
X156957056Y-148228963D01*
X156957250Y-148233013D01*
X156995201Y-149438186D01*
X156995262Y-149442240D01*
X156993792Y-150647979D01*
X156993721Y-150652033D01*
X156952831Y-151857110D01*
X156952627Y-151861160D01*
X156872360Y-153064237D01*
X156872024Y-153068277D01*
X156752469Y-154268091D01*
X156752001Y-154272119D01*
X156593283Y-155467373D01*
X156592684Y-155471383D01*
X156394966Y-156660857D01*
X156394236Y-156664845D01*
X156157739Y-157847196D01*
X156156888Y-157851115D01*
X155881866Y-159025084D01*
X155880877Y-159029016D01*
X155567623Y-160193366D01*
X155566506Y-160197264D01*
X155215348Y-161350763D01*
X155214104Y-161354622D01*
X154825418Y-162496030D01*
X154824048Y-162499846D01*
X154398270Y-163627896D01*
X154396777Y-163631665D01*
X153934333Y-164745223D01*
X153932717Y-164748942D01*
X153434112Y-165846788D01*
X153432375Y-165850452D01*
X152898145Y-166931407D01*
X152896289Y-166935012D01*
X152327016Y-167997904D01*
X152325044Y-168001446D01*
X151721304Y-169045195D01*
X151719216Y-169048671D01*
X151081709Y-170072065D01*
X151079510Y-170075471D01*
X150408849Y-171077533D01*
X150406539Y-171080865D01*
X149703491Y-172060444D01*
X149701073Y-172063699D01*
X148966373Y-173019768D01*
X148963850Y-173022942D01*
X148198295Y-173954470D01*
X148195670Y-173957560D01*
X147400062Y-174863570D01*
X147397337Y-174866573D01*
X146572539Y-175746081D01*
X146569718Y-175748993D01*
X145716592Y-176601079D01*
X145713677Y-176603897D01*
X144833146Y-177427639D01*
X144830140Y-177430360D01*
X143923161Y-178224863D01*
X143920068Y-178227484D01*
X142987593Y-178991914D01*
X142984415Y-178994433D01*
X142027480Y-179727943D01*
X142024223Y-179730357D01*
X141043772Y-180432222D01*
X141040437Y-180434528D01*
X140037559Y-181103967D01*
X140034150Y-181106162D01*
X139009957Y-181742433D01*
X139006478Y-181744516D01*
X137962029Y-182346963D01*
X137958485Y-182348931D01*
X136894889Y-182916914D01*
X136891281Y-182918766D01*
X135809664Y-183451683D01*
X135805998Y-183453415D01*
X134707580Y-183950664D01*
X134703860Y-183952276D01*
X133589728Y-184413366D01*
X133585957Y-184414855D01*
X132457335Y-184839279D01*
X132453517Y-184840643D01*
X131311691Y-185227917D01*
X131307830Y-185229157D01*
X130153884Y-185578915D01*
X130149985Y-185580027D01*
X128985283Y-185891854D01*
X128981350Y-185892839D01*
X127807017Y-186166435D01*
X127803054Y-186167290D01*
X126620429Y-186402341D01*
X126616440Y-186403066D01*
X125426785Y-186599324D01*
X125422774Y-186599919D01*
X124227301Y-186757182D01*
X124223273Y-186757645D01*
X123023312Y-186875738D01*
X123019271Y-186876069D01*
X121816100Y-186954869D01*
X121812050Y-186955068D01*
X120606924Y-186994489D01*
X120602870Y-186994555D01*
X119397130Y-186994555D01*
X119393076Y-186994489D01*
X118187949Y-186955068D01*
X118183899Y-186954869D01*
X116980728Y-186876069D01*
X116976687Y-186875738D01*
X115776726Y-186757645D01*
X115772698Y-186757182D01*
X114577225Y-186599919D01*
X114573214Y-186599324D01*
X113383559Y-186403066D01*
X113379570Y-186402341D01*
X112196945Y-186167290D01*
X112192982Y-186166435D01*
X111018649Y-185892839D01*
X111014716Y-185891854D01*
X110714088Y-185811367D01*
X110654420Y-185775015D01*
X110623878Y-185712174D01*
X110632159Y-185642797D01*
X110676633Y-185588910D01*
X110743181Y-185567622D01*
X110746157Y-185567586D01*
X125716700Y-185567586D01*
X125716702Y-185567586D01*
X125716703Y-185567586D01*
X125856713Y-185530070D01*
X125982243Y-185457596D01*
X126635934Y-184803903D01*
X126697257Y-184770419D01*
X126723615Y-184767585D01*
X128069230Y-184767585D01*
X128069236Y-184767585D01*
X128172025Y-184757085D01*
X128338562Y-184701900D01*
X128487884Y-184609798D01*
X128611940Y-184485742D01*
X128704042Y-184336420D01*
X128759227Y-184169883D01*
X128769728Y-184067095D01*
X128769728Y-183991586D01*
X128789413Y-183924547D01*
X128842217Y-183878792D01*
X128893728Y-183867586D01*
X130529056Y-183867586D01*
X130529058Y-183867586D01*
X130618202Y-183843700D01*
X130628049Y-183838015D01*
X130698126Y-183797556D01*
X134280470Y-180215212D01*
X134326614Y-180135288D01*
X134350500Y-180046143D01*
X134350500Y-179953856D01*
X134350500Y-176967079D01*
X134370185Y-176900040D01*
X134422989Y-176854285D01*
X134443112Y-176848220D01*
X134443060Y-176848059D01*
X134452342Y-176845043D01*
X134572999Y-176805839D01*
X134649818Y-176750027D01*
X134906523Y-176493320D01*
X134962337Y-176416501D01*
X135001541Y-176295844D01*
X135001541Y-176168978D01*
X134962337Y-176048322D01*
X134962335Y-176048320D01*
X134962335Y-176048318D01*
X134906528Y-175971505D01*
X134906523Y-175971500D01*
X134137168Y-175202147D01*
X134137165Y-175202144D01*
X134060347Y-175146331D01*
X133939691Y-175107127D01*
X133939690Y-175107127D01*
X133812824Y-175107127D01*
X133812820Y-175107127D01*
X133691332Y-175146602D01*
X133621491Y-175148597D01*
X133561658Y-175112517D01*
X133530830Y-175049816D01*
X133538795Y-174980402D01*
X133544352Y-174968933D01*
X133601530Y-174864927D01*
X133601533Y-174864918D01*
X133642372Y-174705864D01*
X133642373Y-174705857D01*
X133642373Y-174584030D01*
X133662058Y-174516991D01*
X133693490Y-174483711D01*
X133712894Y-174469613D01*
X133712895Y-174469612D01*
X133712901Y-174469608D01*
X133969606Y-174212901D01*
X133983711Y-174193488D01*
X134039040Y-174150822D01*
X134084029Y-174142373D01*
X134205857Y-174142373D01*
X134205864Y-174142372D01*
X134364918Y-174101533D01*
X134364927Y-174101530D01*
X134468933Y-174044352D01*
X134537163Y-174029305D01*
X134602697Y-174053535D01*
X134644728Y-174109348D01*
X134649912Y-174179025D01*
X134646602Y-174191332D01*
X134607127Y-174312820D01*
X134607127Y-174439691D01*
X134646332Y-174560349D01*
X134702139Y-174637162D01*
X134702144Y-174637167D01*
X135471499Y-175406520D01*
X135471502Y-175406523D01*
X135548320Y-175462336D01*
X135548321Y-175462336D01*
X135548322Y-175462337D01*
X135668978Y-175501541D01*
X135668979Y-175501541D01*
X135797999Y-175501541D01*
X135865038Y-175521226D01*
X135885680Y-175537860D01*
X136974024Y-176626204D01*
X137007509Y-176687527D01*
X137002525Y-176757219D01*
X136993733Y-176775879D01*
X136987016Y-176787515D01*
X136949500Y-176927525D01*
X136949500Y-177072475D01*
X136980077Y-177186587D01*
X136987017Y-177212488D01*
X137059488Y-177338011D01*
X137059490Y-177338013D01*
X137059491Y-177338015D01*
X137161985Y-177440509D01*
X137161986Y-177440510D01*
X137161988Y-177440511D01*
X137287511Y-177512982D01*
X137287512Y-177512982D01*
X137287515Y-177512984D01*
X137427525Y-177550500D01*
X137427528Y-177550500D01*
X137572472Y-177550500D01*
X137572475Y-177550500D01*
X137712485Y-177512984D01*
X137838015Y-177440509D01*
X137940509Y-177338015D01*
X138012984Y-177212485D01*
X138050500Y-177072475D01*
X138050500Y-176927525D01*
X138012984Y-176787515D01*
X138008915Y-176780468D01*
X137940511Y-176661988D01*
X137940506Y-176661982D01*
X137859946Y-176581422D01*
X137827852Y-176525831D01*
X137826614Y-176521210D01*
X137821865Y-176512984D01*
X137780470Y-176441286D01*
X136381362Y-175042178D01*
X136347877Y-174980855D01*
X136345043Y-174954497D01*
X136345043Y-174825477D01*
X136345042Y-174825474D01*
X136305839Y-174704820D01*
X136305837Y-174704818D01*
X136305837Y-174704816D01*
X136250030Y-174628003D01*
X136250025Y-174627998D01*
X135480670Y-173858645D01*
X135480667Y-173858642D01*
X135403849Y-173802829D01*
X135283193Y-173763625D01*
X135283192Y-173763625D01*
X135156326Y-173763625D01*
X135156322Y-173763625D01*
X135034834Y-173803100D01*
X134964993Y-173805095D01*
X134905160Y-173769015D01*
X134874332Y-173706314D01*
X134882297Y-173636900D01*
X134887854Y-173625431D01*
X134945032Y-173521425D01*
X134945035Y-173521416D01*
X134985874Y-173362362D01*
X134985875Y-173362355D01*
X134985875Y-173198126D01*
X134985874Y-173198119D01*
X134945035Y-173039065D01*
X134945032Y-173039056D01*
X134865915Y-172895145D01*
X134865911Y-172895138D01*
X134841916Y-172867044D01*
X134841903Y-172867030D01*
X134609879Y-172635006D01*
X134609878Y-172635006D01*
X134131874Y-173113010D01*
X134070551Y-173146495D01*
X134000859Y-173141511D01*
X133956512Y-173113010D01*
X133867417Y-173023915D01*
X133778321Y-173113011D01*
X133716998Y-173146495D01*
X133647306Y-173141511D01*
X133602959Y-173113010D01*
X132870540Y-172380590D01*
X132868920Y-172382489D01*
X132868912Y-172382501D01*
X132789803Y-172526400D01*
X132789798Y-172526413D01*
X132748959Y-172685467D01*
X132748959Y-172807300D01*
X132729274Y-172874339D01*
X132708405Y-172899021D01*
X132703353Y-172903617D01*
X132678431Y-172921724D01*
X132627820Y-172972334D01*
X132625653Y-172974307D01*
X132596759Y-172988356D01*
X132568566Y-173003752D01*
X132564114Y-173004230D01*
X132562818Y-173004861D01*
X132560652Y-173004602D01*
X132542207Y-173006586D01*
X128893727Y-173006586D01*
X128826688Y-172986901D01*
X128780933Y-172934097D01*
X128769727Y-172882586D01*
X128769727Y-172807084D01*
X128769726Y-172807067D01*
X128759227Y-172704289D01*
X128759226Y-172704286D01*
X128736269Y-172635006D01*
X128704042Y-172537752D01*
X128611940Y-172388430D01*
X128487884Y-172264374D01*
X128487883Y-172264373D01*
X128431567Y-172229637D01*
X128371558Y-172192624D01*
X128324834Y-172140677D01*
X128313611Y-172071715D01*
X128333023Y-172027038D01*
X133224092Y-172027038D01*
X133867417Y-172670361D01*
X133867418Y-172670361D01*
X134256325Y-172281452D01*
X134024301Y-172049428D01*
X134024287Y-172049415D01*
X133996193Y-172025420D01*
X133996186Y-172025416D01*
X133852275Y-171946299D01*
X133852266Y-171946296D01*
X133693212Y-171905457D01*
X133528969Y-171905457D01*
X133369915Y-171946296D01*
X133369902Y-171946301D01*
X133226003Y-172025410D01*
X133225991Y-172025418D01*
X133224092Y-172027038D01*
X128333023Y-172027038D01*
X128341454Y-172007633D01*
X128371556Y-171981548D01*
X128487884Y-171909798D01*
X128611940Y-171785742D01*
X128704042Y-171636420D01*
X128759227Y-171469883D01*
X128769728Y-171367095D01*
X128769727Y-170267078D01*
X128765459Y-170225301D01*
X128759227Y-170164289D01*
X128759226Y-170164286D01*
X128748367Y-170131516D01*
X128704042Y-169997752D01*
X128611940Y-169848430D01*
X128487884Y-169724374D01*
X128487883Y-169724373D01*
X128431567Y-169689637D01*
X128371558Y-169652624D01*
X128324834Y-169600677D01*
X128313611Y-169531715D01*
X128341454Y-169467633D01*
X128371557Y-169441548D01*
X128487884Y-169369798D01*
X128611940Y-169245742D01*
X128704042Y-169096420D01*
X128759227Y-168929883D01*
X128769728Y-168827095D01*
X128769727Y-167727078D01*
X128759227Y-167624289D01*
X128704042Y-167457752D01*
X128611940Y-167308430D01*
X128487884Y-167184374D01*
X128338562Y-167092272D01*
X128172025Y-167037087D01*
X128172023Y-167037086D01*
X128069238Y-167026586D01*
X126219226Y-167026586D01*
X126219209Y-167026587D01*
X126116431Y-167037086D01*
X126116428Y-167037087D01*
X125949896Y-167092271D01*
X125949891Y-167092273D01*
X125800570Y-167184375D01*
X125676517Y-167308428D01*
X125584415Y-167457749D01*
X125584413Y-167457754D01*
X125562758Y-167523106D01*
X125529229Y-167624289D01*
X125529229Y-167624290D01*
X125529228Y-167624290D01*
X125518728Y-167727069D01*
X125518728Y-168827087D01*
X125518729Y-168827105D01*
X125529228Y-168929882D01*
X125529229Y-168929885D01*
X125568592Y-169048672D01*
X125584414Y-169096420D01*
X125676516Y-169245742D01*
X125800572Y-169369798D01*
X125916897Y-169441547D01*
X125963621Y-169493495D01*
X125974844Y-169562458D01*
X125947000Y-169626540D01*
X125916898Y-169652623D01*
X125853276Y-169691866D01*
X125800570Y-169724375D01*
X125676517Y-169848428D01*
X125584415Y-169997749D01*
X125584414Y-169997752D01*
X125529229Y-170164289D01*
X125529229Y-170164290D01*
X125529228Y-170164290D01*
X125518728Y-170267069D01*
X125518728Y-171367087D01*
X125518729Y-171367105D01*
X125529228Y-171469882D01*
X125529229Y-171469885D01*
X125584413Y-171636417D01*
X125584414Y-171636420D01*
X125676516Y-171785742D01*
X125800572Y-171909798D01*
X125916897Y-171981547D01*
X125963621Y-172033495D01*
X125974844Y-172102458D01*
X125947000Y-172166540D01*
X125916898Y-172192623D01*
X125842902Y-172238264D01*
X125800570Y-172264375D01*
X125676517Y-172388428D01*
X125584415Y-172537749D01*
X125584414Y-172537752D01*
X125529229Y-172704289D01*
X125529229Y-172704290D01*
X125529228Y-172704290D01*
X125518728Y-172807069D01*
X125518728Y-173907087D01*
X125518729Y-173907105D01*
X125529228Y-174009882D01*
X125529229Y-174009885D01*
X125584413Y-174176417D01*
X125584415Y-174176422D01*
X125613137Y-174222987D01*
X125676516Y-174325742D01*
X125800572Y-174449798D01*
X125916897Y-174521547D01*
X125963621Y-174573495D01*
X125974844Y-174642458D01*
X125947000Y-174706540D01*
X125916898Y-174732623D01*
X125842902Y-174778264D01*
X125800570Y-174804375D01*
X125676517Y-174928428D01*
X125584415Y-175077749D01*
X125584414Y-175077752D01*
X125529229Y-175244289D01*
X125529229Y-175244290D01*
X125529228Y-175244290D01*
X125518728Y-175347069D01*
X125518728Y-176447087D01*
X125518729Y-176447105D01*
X125529228Y-176549882D01*
X125529229Y-176549885D01*
X125554519Y-176626204D01*
X125584414Y-176716420D01*
X125676516Y-176865742D01*
X125800572Y-176989798D01*
X125916897Y-177061547D01*
X125963621Y-177113495D01*
X125974844Y-177182458D01*
X125947000Y-177246540D01*
X125916898Y-177272623D01*
X125892756Y-177287515D01*
X125800570Y-177344375D01*
X125676517Y-177468428D01*
X125584415Y-177617749D01*
X125584414Y-177617752D01*
X125529229Y-177784289D01*
X125529229Y-177784290D01*
X125529228Y-177784290D01*
X125518728Y-177887069D01*
X125518728Y-178987087D01*
X125518729Y-178987105D01*
X125529228Y-179089882D01*
X125529229Y-179089885D01*
X125570056Y-179213092D01*
X125584414Y-179256420D01*
X125676516Y-179405742D01*
X125800572Y-179529798D01*
X125949894Y-179621900D01*
X126116431Y-179677085D01*
X126163150Y-179681857D01*
X126227840Y-179708252D01*
X126238229Y-179717534D01*
X127144228Y-180623533D01*
X127144229Y-180623533D01*
X128050225Y-179717534D01*
X128111548Y-179684049D01*
X128125299Y-179681858D01*
X128172025Y-179677085D01*
X128338562Y-179621900D01*
X128487884Y-179529798D01*
X128611940Y-179405742D01*
X128704042Y-179256420D01*
X128759227Y-179089883D01*
X128769728Y-178987095D01*
X128769727Y-177887078D01*
X128768001Y-177870185D01*
X128759227Y-177784289D01*
X128759226Y-177784286D01*
X128704042Y-177617752D01*
X128611940Y-177468430D01*
X128487884Y-177344374D01*
X128487883Y-177344373D01*
X128395700Y-177287515D01*
X128371558Y-177272624D01*
X128324834Y-177220677D01*
X128313611Y-177151715D01*
X128341454Y-177087633D01*
X128371557Y-177061548D01*
X128487884Y-176989798D01*
X128611940Y-176865742D01*
X128704042Y-176716420D01*
X128759227Y-176549883D01*
X128769728Y-176447095D01*
X128769727Y-175347078D01*
X128769493Y-175344791D01*
X128759227Y-175244289D01*
X128759226Y-175244286D01*
X128745262Y-175202145D01*
X128704042Y-175077752D01*
X128611940Y-174928430D01*
X128487884Y-174804374D01*
X128487883Y-174804373D01*
X128431567Y-174769637D01*
X128371558Y-174732624D01*
X128324834Y-174680677D01*
X128313611Y-174611715D01*
X128341454Y-174547633D01*
X128371557Y-174521548D01*
X128487884Y-174449798D01*
X128611940Y-174325742D01*
X128704042Y-174176420D01*
X128759227Y-174009883D01*
X128769728Y-173907095D01*
X128769728Y-173831586D01*
X128789413Y-173764547D01*
X128842217Y-173718792D01*
X128893728Y-173707586D01*
X131328116Y-173707586D01*
X131395155Y-173727271D01*
X131440910Y-173780075D01*
X131450854Y-173849233D01*
X131448220Y-173862424D01*
X131405457Y-174028971D01*
X131405457Y-174193212D01*
X131446296Y-174352266D01*
X131446299Y-174352275D01*
X131525416Y-174496186D01*
X131525420Y-174496193D01*
X131549415Y-174524287D01*
X131549428Y-174524301D01*
X131781451Y-174756325D01*
X131781452Y-174756325D01*
X132259456Y-174278320D01*
X132320779Y-174244835D01*
X132390470Y-174249819D01*
X132434818Y-174278320D01*
X132613010Y-174456512D01*
X132646495Y-174517835D01*
X132641511Y-174587527D01*
X132613010Y-174631874D01*
X132135006Y-175109878D01*
X132135006Y-175109879D01*
X132367030Y-175341903D01*
X132367044Y-175341916D01*
X132395138Y-175365911D01*
X132395145Y-175365915D01*
X132539056Y-175445032D01*
X132539065Y-175445035D01*
X132698119Y-175485874D01*
X132698127Y-175485875D01*
X132862355Y-175485875D01*
X132862362Y-175485874D01*
X133021416Y-175445035D01*
X133021425Y-175445032D01*
X133125431Y-175387854D01*
X133193661Y-175372807D01*
X133259195Y-175397037D01*
X133301226Y-175452850D01*
X133306410Y-175522527D01*
X133303100Y-175534834D01*
X133263625Y-175656322D01*
X133263625Y-175783193D01*
X133302830Y-175903851D01*
X133358637Y-175980664D01*
X133425659Y-176047686D01*
X133457751Y-176103271D01*
X133487016Y-176212485D01*
X133487017Y-176212488D01*
X133559488Y-176338011D01*
X133559493Y-176338017D01*
X133613181Y-176391705D01*
X133646666Y-176453028D01*
X133649500Y-176479386D01*
X133649500Y-179803456D01*
X133629815Y-179870495D01*
X133613181Y-179891137D01*
X130374051Y-183130267D01*
X130312728Y-183163752D01*
X130286370Y-183166586D01*
X128893727Y-183166586D01*
X128826688Y-183146901D01*
X128780933Y-183094097D01*
X128769727Y-183042586D01*
X128769727Y-182967084D01*
X128769726Y-182967067D01*
X128759227Y-182864289D01*
X128759226Y-182864286D01*
X128747140Y-182827814D01*
X128704042Y-182697752D01*
X128611940Y-182548430D01*
X128487884Y-182424374D01*
X128338562Y-182332272D01*
X128338559Y-182332271D01*
X128172026Y-182277087D01*
X128172019Y-182277086D01*
X128125302Y-182272313D01*
X128060610Y-182245916D01*
X128050225Y-182236636D01*
X127144228Y-181330639D01*
X126238228Y-182236637D01*
X126176905Y-182270122D01*
X126163150Y-182272314D01*
X126116437Y-182277086D01*
X126116430Y-182277087D01*
X125949896Y-182332271D01*
X125949891Y-182332273D01*
X125800570Y-182424375D01*
X125676517Y-182548428D01*
X125584415Y-182697749D01*
X125584414Y-182697752D01*
X125529229Y-182864289D01*
X125529229Y-182864290D01*
X125529228Y-182864290D01*
X125518728Y-182967069D01*
X125518728Y-184067087D01*
X125518729Y-184067105D01*
X125529228Y-184169882D01*
X125529229Y-184169886D01*
X125550886Y-184235241D01*
X125553288Y-184305070D01*
X125520862Y-184361926D01*
X125452522Y-184430267D01*
X125391199Y-184463752D01*
X125364840Y-184466586D01*
X122232799Y-184466586D01*
X122165760Y-184446901D01*
X122120005Y-184394097D01*
X122110061Y-184324939D01*
X122139086Y-184261383D01*
X122145118Y-184254905D01*
X122948340Y-183451683D01*
X123780470Y-182619553D01*
X123826614Y-182539629D01*
X123838646Y-182494724D01*
X123850500Y-182450485D01*
X123850500Y-181979386D01*
X123870185Y-181912347D01*
X123886819Y-181891705D01*
X123892382Y-181886142D01*
X123940509Y-181838015D01*
X124012984Y-181712485D01*
X124050500Y-181572475D01*
X124050500Y-181427525D01*
X124012984Y-181287515D01*
X123963015Y-181200967D01*
X123940511Y-181161988D01*
X123940506Y-181161982D01*
X123838017Y-181059493D01*
X123838011Y-181059488D01*
X123712488Y-180987017D01*
X123712489Y-180987017D01*
X123701006Y-180983940D01*
X123572475Y-180949500D01*
X123427525Y-180949500D01*
X123298993Y-180983940D01*
X123287511Y-180987017D01*
X123161988Y-181059488D01*
X123161982Y-181059493D01*
X123059493Y-181161982D01*
X123059488Y-181161988D01*
X122987017Y-181287511D01*
X122987016Y-181287515D01*
X122949500Y-181427525D01*
X122949500Y-181572475D01*
X122964883Y-181629883D01*
X122987017Y-181712488D01*
X123059488Y-181838011D01*
X123059493Y-181838017D01*
X123113181Y-181891705D01*
X123146666Y-181953028D01*
X123149500Y-181979386D01*
X123149500Y-182207796D01*
X123129815Y-182274835D01*
X123113181Y-182295477D01*
X122166841Y-183241816D01*
X122105518Y-183275301D01*
X122035826Y-183270317D01*
X121979893Y-183228445D01*
X121971773Y-183216136D01*
X121940509Y-183161985D01*
X121838015Y-183059491D01*
X121838013Y-183059490D01*
X121838011Y-183059488D01*
X121712488Y-182987017D01*
X121712489Y-182987017D01*
X121701006Y-182983940D01*
X121572475Y-182949500D01*
X121427525Y-182949500D01*
X121298993Y-182983940D01*
X121287511Y-182987017D01*
X121161988Y-183059488D01*
X121161982Y-183059493D01*
X121108295Y-183113181D01*
X121046972Y-183146666D01*
X121020614Y-183149500D01*
X113698686Y-183149500D01*
X113631647Y-183129815D01*
X113611005Y-183113181D01*
X112514981Y-182017157D01*
X112481496Y-181955834D01*
X112486480Y-181886142D01*
X112497118Y-181864389D01*
X112539042Y-181796420D01*
X112594227Y-181629883D01*
X112604728Y-181527095D01*
X112604728Y-181399022D01*
X117474800Y-181399022D01*
X117474800Y-181600977D01*
X117514195Y-181799032D01*
X117514198Y-181799042D01*
X117591477Y-181985612D01*
X117703674Y-182153526D01*
X117703677Y-182153530D01*
X117846469Y-182296322D01*
X117846473Y-182296325D01*
X118014385Y-182408521D01*
X118200960Y-182485803D01*
X118399022Y-182525199D01*
X118399026Y-182525200D01*
X118399027Y-182525200D01*
X118600974Y-182525200D01*
X118600975Y-182525199D01*
X118799040Y-182485803D01*
X118985615Y-182408521D01*
X119153527Y-182296325D01*
X119296325Y-182153527D01*
X119408521Y-181985615D01*
X119485803Y-181799040D01*
X119525200Y-181600973D01*
X119525200Y-181399027D01*
X119485803Y-181200960D01*
X119408521Y-181014385D01*
X119296325Y-180846473D01*
X119296322Y-180846469D01*
X119153530Y-180703677D01*
X119153526Y-180703674D01*
X118985612Y-180591477D01*
X118839350Y-180530894D01*
X118839348Y-180530893D01*
X118799046Y-180514199D01*
X118799042Y-180514197D01*
X118799040Y-180514197D01*
X118799036Y-180514196D01*
X118799032Y-180514195D01*
X118600977Y-180474800D01*
X118600973Y-180474800D01*
X118399027Y-180474800D01*
X118399022Y-180474800D01*
X118200967Y-180514195D01*
X118200957Y-180514198D01*
X118014387Y-180591477D01*
X117846473Y-180703674D01*
X117846469Y-180703677D01*
X117703677Y-180846469D01*
X117703674Y-180846473D01*
X117591477Y-181014387D01*
X117514198Y-181200957D01*
X117514195Y-181200967D01*
X117474800Y-181399022D01*
X112604728Y-181399022D01*
X112604727Y-180977086D01*
X112604727Y-180427084D01*
X112604726Y-180427066D01*
X112603911Y-180419085D01*
X125269228Y-180419085D01*
X125269228Y-181535086D01*
X125279836Y-181654411D01*
X125279837Y-181654414D01*
X125335785Y-181849947D01*
X125429949Y-182030215D01*
X125558475Y-182187839D01*
X125570288Y-182197471D01*
X125570289Y-182197471D01*
X126790675Y-180977086D01*
X126790674Y-180977085D01*
X127497781Y-180977085D01*
X127497781Y-180977087D01*
X128718165Y-182197471D01*
X128718166Y-182197471D01*
X128729983Y-182187836D01*
X128858506Y-182030215D01*
X128952670Y-181849947D01*
X129008618Y-181654414D01*
X129008619Y-181654411D01*
X129019227Y-181535086D01*
X129019228Y-181535084D01*
X129019228Y-180419088D01*
X129019227Y-180419085D01*
X129008619Y-180299760D01*
X129008618Y-180299757D01*
X128952670Y-180104224D01*
X128858506Y-179923956D01*
X128729982Y-179766334D01*
X128718166Y-179756699D01*
X127497781Y-180977085D01*
X126790674Y-180977085D01*
X125570287Y-179756698D01*
X125558476Y-179766331D01*
X125429949Y-179923956D01*
X125335785Y-180104224D01*
X125279837Y-180299757D01*
X125279836Y-180299760D01*
X125269228Y-180419085D01*
X112603911Y-180419085D01*
X112594227Y-180324289D01*
X112594226Y-180324286D01*
X112586098Y-180299757D01*
X112539042Y-180157752D01*
X112446940Y-180008430D01*
X112322884Y-179884374D01*
X112322883Y-179884373D01*
X112266567Y-179849637D01*
X112206558Y-179812624D01*
X112159834Y-179760677D01*
X112148611Y-179691715D01*
X112176454Y-179627633D01*
X112206557Y-179601548D01*
X112322884Y-179529798D01*
X112446940Y-179405742D01*
X112539042Y-179256420D01*
X112594227Y-179089883D01*
X112604728Y-178987095D01*
X112604728Y-178911586D01*
X112624413Y-178844547D01*
X112677217Y-178798792D01*
X112728728Y-178787586D01*
X115959645Y-178787586D01*
X116026684Y-178807271D01*
X116058016Y-178836093D01*
X116059490Y-178838014D01*
X116059491Y-178838015D01*
X116161985Y-178940509D01*
X116161986Y-178940510D01*
X116161988Y-178940511D01*
X116287511Y-179012982D01*
X116287512Y-179012982D01*
X116287515Y-179012984D01*
X116427525Y-179050500D01*
X116427528Y-179050500D01*
X116572472Y-179050500D01*
X116572475Y-179050500D01*
X116712485Y-179012984D01*
X116838015Y-178940509D01*
X116940509Y-178838015D01*
X117005311Y-178725775D01*
X120301506Y-178725775D01*
X120301506Y-178900212D01*
X120335533Y-179071277D01*
X120335535Y-179071285D01*
X120402284Y-179232433D01*
X120402289Y-179232442D01*
X120499192Y-179377467D01*
X120499195Y-179377471D01*
X120622528Y-179500804D01*
X120622532Y-179500807D01*
X120767557Y-179597710D01*
X120767566Y-179597715D01*
X120804072Y-179612836D01*
X120928715Y-179664465D01*
X121099787Y-179698493D01*
X121099791Y-179698494D01*
X121099792Y-179698494D01*
X121274221Y-179698494D01*
X121274222Y-179698493D01*
X121445297Y-179664465D01*
X121606448Y-179597714D01*
X121751480Y-179500807D01*
X121874819Y-179377468D01*
X121971726Y-179232436D01*
X122038477Y-179071285D01*
X122072506Y-178900208D01*
X122072506Y-178725780D01*
X122038477Y-178554703D01*
X121971726Y-178393552D01*
X121971725Y-178393551D01*
X121971722Y-178393545D01*
X121874819Y-178248520D01*
X121874816Y-178248516D01*
X121751483Y-178125183D01*
X121751479Y-178125180D01*
X121606454Y-178028277D01*
X121606445Y-178028272D01*
X121445297Y-177961523D01*
X121445289Y-177961521D01*
X121274224Y-177927494D01*
X121274220Y-177927494D01*
X121099792Y-177927494D01*
X121099787Y-177927494D01*
X120928722Y-177961521D01*
X120928714Y-177961523D01*
X120767566Y-178028272D01*
X120767557Y-178028277D01*
X120622532Y-178125180D01*
X120622528Y-178125183D01*
X120499195Y-178248516D01*
X120499192Y-178248520D01*
X120402289Y-178393545D01*
X120402284Y-178393554D01*
X120335535Y-178554702D01*
X120335533Y-178554710D01*
X120301506Y-178725775D01*
X117005311Y-178725775D01*
X117012984Y-178712485D01*
X117050500Y-178572475D01*
X117050500Y-178427525D01*
X117012984Y-178287515D01*
X116940509Y-178161985D01*
X116840705Y-178062181D01*
X116807220Y-178000858D01*
X116812204Y-177931166D01*
X116854076Y-177875233D01*
X116919540Y-177850816D01*
X116928386Y-177850500D01*
X117020614Y-177850500D01*
X117087653Y-177870185D01*
X117108295Y-177886819D01*
X117161985Y-177940509D01*
X117161986Y-177940510D01*
X117161988Y-177940511D01*
X117287511Y-178012982D01*
X117287512Y-178012982D01*
X117287515Y-178012984D01*
X117427525Y-178050500D01*
X117427528Y-178050500D01*
X117572472Y-178050500D01*
X117572475Y-178050500D01*
X117712485Y-178012984D01*
X117838015Y-177940509D01*
X117940509Y-177838015D01*
X118012984Y-177712485D01*
X118050500Y-177572475D01*
X118050500Y-177427525D01*
X118012984Y-177287515D01*
X118004387Y-177272625D01*
X117940511Y-177161988D01*
X117940506Y-177161982D01*
X117840705Y-177062181D01*
X117807220Y-177000858D01*
X117812204Y-176931166D01*
X117854076Y-176875233D01*
X117919540Y-176850816D01*
X117928386Y-176850500D01*
X118020614Y-176850500D01*
X118087653Y-176870185D01*
X118108295Y-176886819D01*
X118161985Y-176940509D01*
X118161986Y-176940510D01*
X118161988Y-176940511D01*
X118287511Y-177012982D01*
X118287512Y-177012982D01*
X118287515Y-177012984D01*
X118427525Y-177050500D01*
X118427528Y-177050500D01*
X118572472Y-177050500D01*
X118572475Y-177050500D01*
X118712485Y-177012984D01*
X118838015Y-176940509D01*
X118940509Y-176838015D01*
X119012984Y-176712485D01*
X119050500Y-176572475D01*
X119050500Y-176427525D01*
X119012984Y-176287515D01*
X118969665Y-176212485D01*
X118940511Y-176161988D01*
X118940506Y-176161982D01*
X118838017Y-176059493D01*
X118838011Y-176059488D01*
X118712488Y-175987017D01*
X118712489Y-175987017D01*
X118688779Y-175980664D01*
X118572475Y-175949500D01*
X118427525Y-175949500D01*
X118311221Y-175980664D01*
X118287511Y-175987017D01*
X118161988Y-176059488D01*
X118161982Y-176059493D01*
X118108295Y-176113181D01*
X118046972Y-176146666D01*
X118020614Y-176149500D01*
X114196544Y-176149500D01*
X114129505Y-176129815D01*
X114108863Y-176113181D01*
X113041047Y-175045365D01*
X113007562Y-174984042D01*
X113004728Y-174957684D01*
X113004728Y-169905944D01*
X113004728Y-169905942D01*
X112980842Y-169816798D01*
X112977065Y-169810256D01*
X112977065Y-169810255D01*
X112934702Y-169736880D01*
X112934696Y-169736872D01*
X112514981Y-169317157D01*
X112481496Y-169255834D01*
X112486480Y-169186142D01*
X112497118Y-169164389D01*
X112539042Y-169096420D01*
X112594227Y-168929883D01*
X112604728Y-168827095D01*
X112604727Y-167727078D01*
X112594227Y-167624289D01*
X112539042Y-167457752D01*
X112446940Y-167308430D01*
X112322884Y-167184374D01*
X112173562Y-167092272D01*
X112007025Y-167037087D01*
X112007023Y-167037086D01*
X111904238Y-167026586D01*
X110054226Y-167026586D01*
X110054209Y-167026587D01*
X109951431Y-167037086D01*
X109951428Y-167037087D01*
X109784896Y-167092271D01*
X109784891Y-167092273D01*
X109635570Y-167184375D01*
X109511517Y-167308428D01*
X109419415Y-167457749D01*
X109419413Y-167457754D01*
X109397758Y-167523106D01*
X109364229Y-167624289D01*
X109364229Y-167624290D01*
X109364228Y-167624290D01*
X109353728Y-167727069D01*
X109353728Y-168827087D01*
X109353729Y-168827105D01*
X109364228Y-168929882D01*
X109364229Y-168929885D01*
X109403592Y-169048672D01*
X109419414Y-169096420D01*
X109511516Y-169245742D01*
X109635572Y-169369798D01*
X109751897Y-169441547D01*
X109798621Y-169493495D01*
X109809844Y-169562458D01*
X109782000Y-169626540D01*
X109751898Y-169652623D01*
X109688276Y-169691866D01*
X109635570Y-169724375D01*
X109511517Y-169848428D01*
X109419415Y-169997749D01*
X109419414Y-169997752D01*
X109364229Y-170164289D01*
X109364229Y-170164290D01*
X109364228Y-170164290D01*
X109353728Y-170267069D01*
X109353728Y-171367087D01*
X109353729Y-171367105D01*
X109364228Y-171469882D01*
X109364229Y-171469885D01*
X109419413Y-171636417D01*
X109419414Y-171636420D01*
X109511516Y-171785742D01*
X109635572Y-171909798D01*
X109751897Y-171981547D01*
X109798621Y-172033495D01*
X109809844Y-172102458D01*
X109782000Y-172166540D01*
X109751898Y-172192623D01*
X109677902Y-172238264D01*
X109635570Y-172264375D01*
X109511517Y-172388428D01*
X109419415Y-172537749D01*
X109419414Y-172537752D01*
X109364229Y-172704289D01*
X109364229Y-172704290D01*
X109364228Y-172704290D01*
X109353728Y-172807069D01*
X109353728Y-173907087D01*
X109353729Y-173907105D01*
X109364228Y-174009882D01*
X109364229Y-174009885D01*
X109419413Y-174176417D01*
X109419415Y-174176422D01*
X109448137Y-174222987D01*
X109511516Y-174325742D01*
X109635572Y-174449798D01*
X109751897Y-174521547D01*
X109798621Y-174573495D01*
X109809844Y-174642458D01*
X109782000Y-174706540D01*
X109751898Y-174732623D01*
X109677902Y-174778264D01*
X109635570Y-174804375D01*
X109511517Y-174928428D01*
X109419415Y-175077749D01*
X109419414Y-175077752D01*
X109364229Y-175244289D01*
X109364229Y-175244290D01*
X109364228Y-175244290D01*
X109353728Y-175347069D01*
X109353728Y-176447087D01*
X109353729Y-176447105D01*
X109364228Y-176549882D01*
X109364229Y-176549885D01*
X109389519Y-176626204D01*
X109419414Y-176716420D01*
X109511516Y-176865742D01*
X109635572Y-176989798D01*
X109751897Y-177061547D01*
X109798621Y-177113495D01*
X109809844Y-177182458D01*
X109782000Y-177246540D01*
X109751898Y-177272623D01*
X109727756Y-177287515D01*
X109635570Y-177344375D01*
X109511517Y-177468428D01*
X109419415Y-177617749D01*
X109419414Y-177617752D01*
X109364229Y-177784289D01*
X109364229Y-177784290D01*
X109364228Y-177784290D01*
X109353728Y-177887069D01*
X109353728Y-178558684D01*
X109334043Y-178625723D01*
X109281239Y-178671478D01*
X109212081Y-178681422D01*
X109148525Y-178652397D01*
X109142047Y-178646365D01*
X107386819Y-176891137D01*
X107353334Y-176829814D01*
X107350500Y-176803456D01*
X107350500Y-165453858D01*
X107350500Y-165453856D01*
X107326614Y-165364712D01*
X107326611Y-165364706D01*
X107280473Y-165284794D01*
X107280470Y-165284791D01*
X107280469Y-165284788D01*
X107257862Y-165262181D01*
X107224377Y-165200858D01*
X107229361Y-165131166D01*
X107271233Y-165075233D01*
X107336697Y-165050816D01*
X107345543Y-165050500D01*
X107897863Y-165050500D01*
X107897872Y-165050500D01*
X107957482Y-165044091D01*
X108092330Y-164993796D01*
X108207546Y-164907546D01*
X108293796Y-164792330D01*
X108344091Y-164657482D01*
X108350500Y-164597872D01*
X108350500Y-161602128D01*
X108344091Y-161542518D01*
X108293796Y-161407670D01*
X108207546Y-161292454D01*
X108092330Y-161206204D01*
X108092328Y-161206203D01*
X108092327Y-161206202D01*
X107957481Y-161155908D01*
X107957482Y-161155908D01*
X107897882Y-161149501D01*
X107897880Y-161149500D01*
X107897872Y-161149500D01*
X106802128Y-161149500D01*
X106802120Y-161149500D01*
X106802117Y-161149501D01*
X106742518Y-161155908D01*
X106607672Y-161206202D01*
X106607670Y-161206204D01*
X106492454Y-161292454D01*
X106406204Y-161407670D01*
X106406202Y-161407672D01*
X106355908Y-161542518D01*
X106349501Y-161602117D01*
X106349500Y-161602136D01*
X106349500Y-164597863D01*
X106349501Y-164597882D01*
X106355908Y-164657481D01*
X106406202Y-164792327D01*
X106406203Y-164792328D01*
X106406204Y-164792330D01*
X106492454Y-164907546D01*
X106492455Y-164907547D01*
X106517417Y-164926233D01*
X106559289Y-164982166D01*
X106564273Y-165051858D01*
X106530788Y-165113181D01*
X106469465Y-165146666D01*
X106443107Y-165149500D01*
X101556893Y-165149500D01*
X101489854Y-165129815D01*
X101444099Y-165077011D01*
X101434155Y-165007853D01*
X101463180Y-164944297D01*
X101482583Y-164926233D01*
X101507546Y-164907546D01*
X101593796Y-164792330D01*
X101644091Y-164657482D01*
X101650500Y-164597872D01*
X101650500Y-161602128D01*
X101644091Y-161542518D01*
X101593796Y-161407670D01*
X101507546Y-161292454D01*
X101392330Y-161206204D01*
X101392328Y-161206203D01*
X101392327Y-161206202D01*
X101257481Y-161155908D01*
X101257482Y-161155908D01*
X101197882Y-161149501D01*
X101197880Y-161149500D01*
X101197872Y-161149500D01*
X100102128Y-161149500D01*
X100102120Y-161149500D01*
X100102117Y-161149501D01*
X100042518Y-161155908D01*
X99907672Y-161206202D01*
X99907670Y-161206204D01*
X99792454Y-161292454D01*
X99706204Y-161407670D01*
X99706202Y-161407672D01*
X99655908Y-161542518D01*
X99649501Y-161602117D01*
X99649500Y-161602136D01*
X99649500Y-164597863D01*
X99649501Y-164597882D01*
X99655908Y-164657481D01*
X99706202Y-164792327D01*
X99706203Y-164792328D01*
X99706204Y-164792330D01*
X99792454Y-164907546D01*
X99907670Y-164993796D01*
X99907671Y-164993796D01*
X99907672Y-164993797D01*
X100042518Y-165044091D01*
X100042517Y-165044091D01*
X100049445Y-165044835D01*
X100102128Y-165050500D01*
X100102137Y-165050500D01*
X101154456Y-165050500D01*
X101221495Y-165070185D01*
X101267250Y-165122989D01*
X101277194Y-165192147D01*
X101248169Y-165255703D01*
X101242137Y-165262181D01*
X98981210Y-167523106D01*
X98919887Y-167556591D01*
X98850195Y-167551607D01*
X98837234Y-167545910D01*
X98775301Y-167514353D01*
X98681524Y-167499501D01*
X97593482Y-167499501D01*
X97512519Y-167512324D01*
X97499696Y-167514355D01*
X97386658Y-167571951D01*
X97386657Y-167571952D01*
X97386652Y-167571955D01*
X97296954Y-167661653D01*
X97296951Y-167661658D01*
X97239352Y-167774699D01*
X97224500Y-167868476D01*
X97224500Y-168231522D01*
X97228254Y-168255224D01*
X97219296Y-168324517D01*
X97193462Y-168362298D01*
X97107318Y-168448442D01*
X97107314Y-168448447D01*
X97023718Y-168589801D01*
X96977899Y-168747513D01*
X96977704Y-168749998D01*
X96977705Y-168750000D01*
X99297295Y-168750000D01*
X99297295Y-168749998D01*
X99297100Y-168747513D01*
X99251281Y-168589801D01*
X99171884Y-168455548D01*
X99154701Y-168387824D01*
X99176861Y-168321562D01*
X99190929Y-168304752D01*
X101608863Y-165886819D01*
X101670186Y-165853334D01*
X101696544Y-165850500D01*
X106525500Y-165850500D01*
X106592539Y-165870185D01*
X106638294Y-165922989D01*
X106649500Y-165974500D01*
X106649500Y-177046144D01*
X106659081Y-177081900D01*
X106673386Y-177135289D01*
X106673387Y-177135290D01*
X106719527Y-177215208D01*
X106719531Y-177215213D01*
X108717410Y-179213092D01*
X108750895Y-179274415D01*
X108753729Y-179300773D01*
X108753729Y-182827814D01*
X108734044Y-182894853D01*
X108723823Y-182908575D01*
X108720751Y-182912153D01*
X108663720Y-182969185D01*
X108647112Y-182997949D01*
X108639591Y-183006713D01*
X108619581Y-183019705D01*
X108602314Y-183036169D01*
X108590813Y-183038385D01*
X108580991Y-183044763D01*
X108557134Y-183044875D01*
X108533707Y-183049390D01*
X108522833Y-183045036D01*
X108511122Y-183045092D01*
X108490991Y-183032288D01*
X108468843Y-183023421D01*
X108457816Y-183013633D01*
X108086819Y-182642636D01*
X108053334Y-182581313D01*
X108050500Y-182554955D01*
X108050500Y-182427527D01*
X108050500Y-182427525D01*
X108012984Y-182287515D01*
X108006963Y-182277087D01*
X107940511Y-182161988D01*
X107940506Y-182161982D01*
X107838017Y-182059493D01*
X107838011Y-182059488D01*
X107712488Y-181987017D01*
X107712489Y-181987017D01*
X107701006Y-181983940D01*
X107572475Y-181949500D01*
X107445045Y-181949500D01*
X107378006Y-181929815D01*
X107357364Y-181913181D01*
X99806363Y-174362180D01*
X99772878Y-174300857D01*
X99777862Y-174231165D01*
X99819734Y-174175232D01*
X99885198Y-174150815D01*
X99894044Y-174150499D01*
X100047870Y-174150499D01*
X100047871Y-174150499D01*
X100107482Y-174144091D01*
X100242330Y-174093796D01*
X100357545Y-174007546D01*
X100443795Y-173892331D01*
X100494090Y-173757483D01*
X100500499Y-173697873D01*
X100500498Y-172302128D01*
X100494090Y-172242517D01*
X100467890Y-172172272D01*
X100443796Y-172107671D01*
X100443792Y-172107664D01*
X100357546Y-171992455D01*
X100357543Y-171992452D01*
X100242334Y-171906206D01*
X100242327Y-171906202D01*
X100107481Y-171855908D01*
X100107482Y-171855908D01*
X100047882Y-171849501D01*
X100047880Y-171849500D01*
X100047872Y-171849500D01*
X100047863Y-171849500D01*
X97952128Y-171849500D01*
X97952122Y-171849501D01*
X97892515Y-171855908D01*
X97757670Y-171906202D01*
X97757663Y-171906206D01*
X97642454Y-171992452D01*
X97642451Y-171992455D01*
X97556205Y-172107664D01*
X97556201Y-172107671D01*
X97505906Y-172242520D01*
X97504450Y-172248684D01*
X97469876Y-172309400D01*
X97407965Y-172341784D01*
X97338373Y-172335557D01*
X97283196Y-172292693D01*
X97267592Y-172263500D01*
X97218796Y-172132671D01*
X97218792Y-172132664D01*
X97132546Y-172017455D01*
X97132543Y-172017452D01*
X97017334Y-171931206D01*
X97017327Y-171931202D01*
X96882481Y-171880908D01*
X96882482Y-171880908D01*
X96822882Y-171874501D01*
X96822880Y-171874500D01*
X96822872Y-171874500D01*
X96822864Y-171874500D01*
X96537000Y-171874500D01*
X96469961Y-171854815D01*
X96424206Y-171802011D01*
X96413000Y-171750500D01*
X96413000Y-170604102D01*
X96432685Y-170537063D01*
X96485489Y-170491308D01*
X96498688Y-170486169D01*
X96500292Y-170485646D01*
X96500304Y-170485645D01*
X96613342Y-170428049D01*
X96703050Y-170338341D01*
X96760646Y-170225303D01*
X96760646Y-170225301D01*
X96760647Y-170225300D01*
X96775499Y-170131523D01*
X96775500Y-170131518D01*
X96775499Y-169768481D01*
X96760646Y-169674695D01*
X96703050Y-169561657D01*
X96703046Y-169561653D01*
X96703045Y-169561651D01*
X96613347Y-169471953D01*
X96613344Y-169471951D01*
X96613342Y-169471949D01*
X96528271Y-169428603D01*
X96500301Y-169414351D01*
X96406524Y-169399499D01*
X96406519Y-169399499D01*
X95934976Y-169399499D01*
X95934975Y-169399499D01*
X95790025Y-169399499D01*
X95790022Y-169399499D01*
X95318482Y-169399499D01*
X95224694Y-169414353D01*
X95182241Y-169435985D01*
X95125946Y-169449500D01*
X94884601Y-169449500D01*
X94817562Y-169429815D01*
X94815747Y-169428626D01*
X94808127Y-169423535D01*
X94808124Y-169423533D01*
X94808123Y-169423533D01*
X94689744Y-169374499D01*
X94689738Y-169374497D01*
X94564071Y-169349500D01*
X94564069Y-169349500D01*
X94435931Y-169349500D01*
X94435929Y-169349500D01*
X94310261Y-169374497D01*
X94310255Y-169374499D01*
X94191875Y-169423533D01*
X94191866Y-169423538D01*
X94085331Y-169494723D01*
X94085327Y-169494726D01*
X93994726Y-169585327D01*
X93994723Y-169585331D01*
X93923538Y-169691866D01*
X93923533Y-169691875D01*
X93874499Y-169810255D01*
X93874499Y-169810256D01*
X93849500Y-169935928D01*
X93849500Y-169935931D01*
X93849500Y-170064069D01*
X93849500Y-170064071D01*
X93849499Y-170064071D01*
X93874497Y-170189738D01*
X93874499Y-170189744D01*
X93923533Y-170308124D01*
X93923538Y-170308133D01*
X93994723Y-170414668D01*
X93994726Y-170414672D01*
X94085327Y-170505273D01*
X94085331Y-170505276D01*
X94191866Y-170576461D01*
X94191872Y-170576464D01*
X94191873Y-170576465D01*
X94310256Y-170625501D01*
X94310260Y-170625501D01*
X94310261Y-170625502D01*
X94435928Y-170650500D01*
X94435931Y-170650500D01*
X94564071Y-170650500D01*
X94648615Y-170633682D01*
X94689744Y-170625501D01*
X94808127Y-170576465D01*
X94815712Y-170571396D01*
X94882389Y-170550520D01*
X94884601Y-170550500D01*
X95188000Y-170550500D01*
X95255039Y-170570185D01*
X95300794Y-170622989D01*
X95312000Y-170674500D01*
X95312000Y-172390027D01*
X95312000Y-172534975D01*
X95349516Y-172674986D01*
X95366434Y-172704290D01*
X95421989Y-172800514D01*
X95421991Y-172800517D01*
X95488180Y-172866706D01*
X95521665Y-172928029D01*
X95524499Y-172954387D01*
X95524499Y-173672870D01*
X95524500Y-173672876D01*
X95530907Y-173732483D01*
X95581201Y-173867328D01*
X95581205Y-173867335D01*
X95667451Y-173982544D01*
X95667454Y-173982547D01*
X95782663Y-174068793D01*
X95782670Y-174068797D01*
X95917516Y-174119091D01*
X95917515Y-174119091D01*
X95924443Y-174119835D01*
X95977126Y-174125500D01*
X96822871Y-174125499D01*
X96882482Y-174119091D01*
X97017330Y-174068796D01*
X97132545Y-173982546D01*
X97218795Y-173867331D01*
X97267592Y-173736498D01*
X97309463Y-173680565D01*
X97374927Y-173656148D01*
X97443200Y-173670999D01*
X97492606Y-173720404D01*
X97504451Y-173751317D01*
X97505908Y-173757484D01*
X97556201Y-173892328D01*
X97556205Y-173892335D01*
X97642451Y-174007544D01*
X97642454Y-174007547D01*
X97757663Y-174093793D01*
X97757670Y-174093797D01*
X97778404Y-174101530D01*
X97892516Y-174144091D01*
X97952126Y-174150500D01*
X98325499Y-174150499D01*
X98392538Y-174170183D01*
X98438293Y-174222987D01*
X98449499Y-174274499D01*
X98449499Y-174406815D01*
X98487015Y-174546826D01*
X98544611Y-174646587D01*
X98559488Y-174672354D01*
X98559490Y-174672357D01*
X108950875Y-185063742D01*
X108984360Y-185125065D01*
X108979376Y-185194757D01*
X108937504Y-185250690D01*
X108872040Y-185275107D01*
X108827226Y-185270092D01*
X108692169Y-185229157D01*
X108688308Y-185227917D01*
X107546482Y-184840643D01*
X107542664Y-184839279D01*
X106414042Y-184414855D01*
X106410271Y-184413366D01*
X105296139Y-183952276D01*
X105292419Y-183950664D01*
X104721637Y-183692273D01*
X104193988Y-183453409D01*
X104190349Y-183451689D01*
X103577019Y-183149500D01*
X103108718Y-182918766D01*
X103105110Y-182916914D01*
X102041514Y-182348931D01*
X102037970Y-182346963D01*
X100993521Y-181744516D01*
X100990042Y-181742433D01*
X99965849Y-181106162D01*
X99962440Y-181103967D01*
X98959562Y-180434528D01*
X98956227Y-180432222D01*
X97975776Y-179730357D01*
X97972519Y-179727943D01*
X97015584Y-178994433D01*
X97012406Y-178991914D01*
X96079931Y-178227484D01*
X96076838Y-178224863D01*
X95169859Y-177430360D01*
X95166853Y-177427639D01*
X94482599Y-176787515D01*
X94286315Y-176603891D01*
X94283407Y-176601079D01*
X94263726Y-176581422D01*
X93430259Y-175748970D01*
X93427483Y-175746105D01*
X92602652Y-174866562D01*
X92599937Y-174863570D01*
X92547955Y-174804375D01*
X91973757Y-174150499D01*
X91804329Y-173957560D01*
X91801704Y-173954470D01*
X91036149Y-173022942D01*
X91033626Y-173019768D01*
X90870182Y-172807077D01*
X90501366Y-172327135D01*
X92724501Y-172327135D01*
X92724501Y-173672870D01*
X92724502Y-173672876D01*
X92730909Y-173732483D01*
X92781203Y-173867328D01*
X92781207Y-173867335D01*
X92867453Y-173982544D01*
X92867456Y-173982547D01*
X92982665Y-174068793D01*
X92982672Y-174068797D01*
X93027619Y-174085561D01*
X93117518Y-174119091D01*
X93177128Y-174125500D01*
X93398033Y-174125499D01*
X93422226Y-174127882D01*
X93535929Y-174150500D01*
X93535932Y-174150500D01*
X93664072Y-174150500D01*
X93777776Y-174127882D01*
X93801968Y-174125499D01*
X94022872Y-174125499D01*
X94022873Y-174125499D01*
X94082484Y-174119091D01*
X94217332Y-174068796D01*
X94332547Y-173982546D01*
X94418797Y-173867331D01*
X94469092Y-173732483D01*
X94475501Y-173672873D01*
X94475500Y-172327128D01*
X94469092Y-172267517D01*
X94467919Y-172264373D01*
X94418798Y-172132671D01*
X94418794Y-172132664D01*
X94332548Y-172017455D01*
X94332545Y-172017452D01*
X94217336Y-171931206D01*
X94217329Y-171931202D01*
X94082483Y-171880908D01*
X94082484Y-171880908D01*
X94022884Y-171874501D01*
X94022882Y-171874500D01*
X94022874Y-171874500D01*
X94022866Y-171874500D01*
X93701964Y-171874500D01*
X93677772Y-171872117D01*
X93564071Y-171849500D01*
X93564069Y-171849500D01*
X93435931Y-171849500D01*
X93435929Y-171849500D01*
X93322227Y-171872117D01*
X93298036Y-171874500D01*
X93177131Y-171874500D01*
X93177124Y-171874501D01*
X93117517Y-171880908D01*
X92982672Y-171931202D01*
X92982665Y-171931206D01*
X92867456Y-172017452D01*
X92867453Y-172017455D01*
X92781207Y-172132664D01*
X92781203Y-172132671D01*
X92730909Y-172267517D01*
X92727188Y-172302135D01*
X92724502Y-172327123D01*
X92724501Y-172327135D01*
X90501366Y-172327135D01*
X90298910Y-172063678D01*
X90296523Y-172060465D01*
X89674936Y-171194389D01*
X89593460Y-171080865D01*
X89591150Y-171077533D01*
X88920489Y-170075471D01*
X88918290Y-170072065D01*
X88681457Y-169691875D01*
X88406199Y-169250001D01*
X96977704Y-169250001D01*
X96977899Y-169252486D01*
X97023718Y-169410198D01*
X97107314Y-169551552D01*
X97107321Y-169551561D01*
X97193460Y-169637700D01*
X97226945Y-169699023D01*
X97228253Y-169744774D01*
X97224500Y-169768475D01*
X97224500Y-170131516D01*
X97233722Y-170189744D01*
X97239354Y-170225303D01*
X97296950Y-170338341D01*
X97296952Y-170338343D01*
X97296954Y-170338346D01*
X97386652Y-170428044D01*
X97386654Y-170428045D01*
X97386658Y-170428049D01*
X97496020Y-170483772D01*
X97499698Y-170485646D01*
X97593475Y-170500498D01*
X97593481Y-170500499D01*
X98050582Y-170500498D01*
X98050592Y-170500499D01*
X98065025Y-170500499D01*
X101972473Y-170500499D01*
X101972475Y-170500499D01*
X101972476Y-170500499D01*
X102112486Y-170462983D01*
X102112497Y-170462976D01*
X102119765Y-170459967D01*
X102189234Y-170452498D01*
X102251714Y-170483772D01*
X102283401Y-170531194D01*
X102306203Y-170592330D01*
X102306206Y-170592335D01*
X102392451Y-170707542D01*
X102392454Y-170707546D01*
X102392457Y-170707548D01*
X102399809Y-170713052D01*
X102441681Y-170768985D01*
X102449500Y-170812320D01*
X102449500Y-171725500D01*
X102429815Y-171792539D01*
X102377011Y-171838294D01*
X102325500Y-171849500D01*
X101952131Y-171849500D01*
X101952124Y-171849501D01*
X101892517Y-171855908D01*
X101757672Y-171906202D01*
X101757665Y-171906206D01*
X101642456Y-171992452D01*
X101642453Y-171992455D01*
X101556207Y-172107664D01*
X101556203Y-172107671D01*
X101505909Y-172242517D01*
X101500515Y-172292693D01*
X101499502Y-172302123D01*
X101499501Y-172302135D01*
X101499501Y-173697870D01*
X101499502Y-173697876D01*
X101505909Y-173757483D01*
X101556203Y-173892328D01*
X101556207Y-173892335D01*
X101642453Y-174007544D01*
X101642456Y-174007547D01*
X101757665Y-174093793D01*
X101757672Y-174093797D01*
X101892518Y-174144091D01*
X101892517Y-174144091D01*
X101899445Y-174144835D01*
X101952128Y-174150500D01*
X104047873Y-174150499D01*
X104107484Y-174144091D01*
X104242332Y-174093796D01*
X104357547Y-174007546D01*
X104443797Y-173892331D01*
X104494092Y-173757483D01*
X104500501Y-173697873D01*
X104500500Y-172302128D01*
X104494092Y-172242517D01*
X104467892Y-172172272D01*
X104443798Y-172107671D01*
X104443794Y-172107664D01*
X104357548Y-171992455D01*
X104357545Y-171992452D01*
X104242336Y-171906206D01*
X104242329Y-171906202D01*
X104107483Y-171855908D01*
X104107484Y-171855908D01*
X104047884Y-171849501D01*
X104047882Y-171849500D01*
X104047874Y-171849500D01*
X104047866Y-171849500D01*
X103674500Y-171849500D01*
X103607461Y-171829815D01*
X103561706Y-171777011D01*
X103550500Y-171725500D01*
X103550500Y-170812320D01*
X103570185Y-170745281D01*
X103600192Y-170713051D01*
X103607546Y-170707546D01*
X103693796Y-170592331D01*
X103744091Y-170457483D01*
X103750273Y-170399986D01*
X104000001Y-170399986D01*
X104010494Y-170502697D01*
X104065641Y-170669119D01*
X104065643Y-170669124D01*
X104157684Y-170818345D01*
X104281654Y-170942315D01*
X104430875Y-171034356D01*
X104430880Y-171034358D01*
X104597302Y-171089505D01*
X104597309Y-171089506D01*
X104700019Y-171099999D01*
X105250000Y-171099999D01*
X105299972Y-171099999D01*
X105299986Y-171099998D01*
X105402697Y-171089505D01*
X105569119Y-171034358D01*
X105569124Y-171034356D01*
X105718345Y-170942315D01*
X105842315Y-170818345D01*
X105934356Y-170669124D01*
X105934358Y-170669119D01*
X105989505Y-170502697D01*
X105989506Y-170502690D01*
X105999999Y-170399986D01*
X106000000Y-170399973D01*
X106000000Y-169100000D01*
X105250000Y-169100000D01*
X105250000Y-171099999D01*
X104700019Y-171099999D01*
X104749999Y-171099998D01*
X104750000Y-171099998D01*
X104750000Y-169100000D01*
X104000001Y-169100000D01*
X104000001Y-170399986D01*
X103750273Y-170399986D01*
X103750500Y-170397873D01*
X103750499Y-168837652D01*
X103750499Y-167302130D01*
X103750498Y-167302122D01*
X103750497Y-167302116D01*
X103750271Y-167300013D01*
X104000000Y-167300013D01*
X104000000Y-168600000D01*
X104750000Y-168600000D01*
X105250000Y-168600000D01*
X105999999Y-168600000D01*
X105999999Y-167300028D01*
X105999998Y-167300013D01*
X105989505Y-167197302D01*
X105934358Y-167030880D01*
X105934356Y-167030875D01*
X105842315Y-166881654D01*
X105718345Y-166757684D01*
X105569124Y-166665643D01*
X105569119Y-166665641D01*
X105402697Y-166610494D01*
X105402690Y-166610493D01*
X105299986Y-166600000D01*
X105250000Y-166600000D01*
X105250000Y-168600000D01*
X104750000Y-168600000D01*
X104750000Y-166600000D01*
X104749999Y-166599999D01*
X104700029Y-166600000D01*
X104700011Y-166600001D01*
X104597302Y-166610494D01*
X104430880Y-166665641D01*
X104430875Y-166665643D01*
X104281654Y-166757684D01*
X104157684Y-166881654D01*
X104065643Y-167030875D01*
X104065641Y-167030880D01*
X104010494Y-167197302D01*
X104010493Y-167197309D01*
X104000000Y-167300013D01*
X103750271Y-167300013D01*
X103744091Y-167242517D01*
X103722405Y-167184375D01*
X103693797Y-167107671D01*
X103693793Y-167107664D01*
X103607547Y-166992455D01*
X103607544Y-166992452D01*
X103492335Y-166906206D01*
X103492328Y-166906202D01*
X103357486Y-166855910D01*
X103357485Y-166855909D01*
X103357483Y-166855909D01*
X103297873Y-166849500D01*
X103297863Y-166849500D01*
X102702129Y-166849500D01*
X102702123Y-166849501D01*
X102642516Y-166855908D01*
X102507671Y-166906202D01*
X102507664Y-166906206D01*
X102392455Y-166992452D01*
X102392452Y-166992455D01*
X102306206Y-167107664D01*
X102306202Y-167107671D01*
X102255908Y-167242517D01*
X102249501Y-167302116D01*
X102249500Y-167302135D01*
X102249500Y-168770613D01*
X102229815Y-168837652D01*
X102213181Y-168858294D01*
X101708295Y-169363180D01*
X101646972Y-169396665D01*
X101620614Y-169399499D01*
X100520211Y-169399499D01*
X100453172Y-169379814D01*
X100432530Y-169363180D01*
X100343944Y-169274594D01*
X100343940Y-169274591D01*
X100237405Y-169203406D01*
X100237396Y-169203401D01*
X100119016Y-169154367D01*
X100119010Y-169154365D01*
X99993343Y-169129368D01*
X99993341Y-169129368D01*
X99865203Y-169129368D01*
X99865201Y-169129368D01*
X99739533Y-169154365D01*
X99739527Y-169154367D01*
X99621147Y-169203401D01*
X99621138Y-169203406D01*
X99514603Y-169274591D01*
X99514597Y-169274596D01*
X99504683Y-169284510D01*
X99443359Y-169317993D01*
X99373667Y-169313006D01*
X99325949Y-169280997D01*
X99297296Y-169250000D01*
X96977705Y-169250000D01*
X96977704Y-169250001D01*
X88406199Y-169250001D01*
X88280748Y-169048614D01*
X88278713Y-169045225D01*
X87674937Y-168001414D01*
X87673001Y-167997936D01*
X87134474Y-166992452D01*
X87103710Y-166935012D01*
X87101854Y-166931407D01*
X86943252Y-166610493D01*
X86567612Y-165850428D01*
X86565899Y-165846813D01*
X86148389Y-164927525D01*
X94449500Y-164927525D01*
X94449500Y-165072475D01*
X94483901Y-165200858D01*
X94487017Y-165212488D01*
X94559488Y-165338011D01*
X94559493Y-165338017D01*
X94613181Y-165391705D01*
X94646666Y-165453028D01*
X94649500Y-165479386D01*
X94649500Y-167233645D01*
X94651877Y-167242517D01*
X94655520Y-167256109D01*
X94655521Y-167256115D01*
X94673384Y-167322786D01*
X94673385Y-167322787D01*
X94719527Y-167402709D01*
X94719531Y-167402714D01*
X94943571Y-167626754D01*
X94977056Y-167688077D01*
X94972072Y-167757769D01*
X94966375Y-167770729D01*
X94964354Y-167774694D01*
X94964353Y-167774698D01*
X94949500Y-167868476D01*
X94949500Y-168231518D01*
X94953255Y-168255224D01*
X94964354Y-168325305D01*
X95021950Y-168438343D01*
X95021952Y-168438345D01*
X95021954Y-168438348D01*
X95111652Y-168528046D01*
X95111654Y-168528047D01*
X95111658Y-168528051D01*
X95224694Y-168585646D01*
X95224698Y-168585648D01*
X95318475Y-168600500D01*
X95318481Y-168600501D01*
X96406518Y-168600500D01*
X96500304Y-168585647D01*
X96613342Y-168528051D01*
X96703050Y-168438343D01*
X96760646Y-168325305D01*
X96760646Y-168325303D01*
X96760647Y-168325302D01*
X96775499Y-168231525D01*
X96775500Y-168231520D01*
X96775499Y-167868483D01*
X96760646Y-167774697D01*
X96703050Y-167661659D01*
X96703046Y-167661655D01*
X96703045Y-167661653D01*
X96613347Y-167571955D01*
X96613344Y-167571953D01*
X96613342Y-167571951D01*
X96517479Y-167523106D01*
X96500301Y-167514353D01*
X96406524Y-167499501D01*
X96406519Y-167499501D01*
X95859044Y-167499501D01*
X95792005Y-167479816D01*
X95771363Y-167463182D01*
X95386819Y-167078638D01*
X95353334Y-167017315D01*
X95350500Y-166990957D01*
X95350500Y-165479386D01*
X95370185Y-165412347D01*
X95386819Y-165391705D01*
X95440509Y-165338015D01*
X95512984Y-165212485D01*
X95550500Y-165072475D01*
X95550500Y-164927525D01*
X95512984Y-164787515D01*
X95489651Y-164747102D01*
X95440511Y-164661988D01*
X95440506Y-164661982D01*
X95338017Y-164559493D01*
X95338011Y-164559488D01*
X95212488Y-164487017D01*
X95212489Y-164487017D01*
X95201006Y-164483940D01*
X95072475Y-164449500D01*
X94927525Y-164449500D01*
X94798993Y-164483940D01*
X94787511Y-164487017D01*
X94661988Y-164559488D01*
X94661982Y-164559493D01*
X94559493Y-164661982D01*
X94559488Y-164661988D01*
X94487017Y-164787511D01*
X94487016Y-164787515D01*
X94449500Y-164927525D01*
X86148389Y-164927525D01*
X86067267Y-164748908D01*
X86065681Y-164745258D01*
X85603213Y-163631642D01*
X85601729Y-163627896D01*
X85175951Y-162499846D01*
X85174581Y-162496030D01*
X85150535Y-162425418D01*
X84785880Y-161354578D01*
X84784665Y-161350807D01*
X84433489Y-160197250D01*
X84432376Y-160193366D01*
X84119122Y-159029016D01*
X84118133Y-159025084D01*
X84090886Y-158908779D01*
X83843101Y-157851071D01*
X83842272Y-157847254D01*
X83605753Y-156664795D01*
X83605033Y-156660857D01*
X83428881Y-155601124D01*
X83407309Y-155471346D01*
X83406721Y-155467411D01*
X83247991Y-154272064D01*
X83247536Y-154268146D01*
X83127974Y-153068271D01*
X83127639Y-153064237D01*
X83047370Y-151861133D01*
X83047168Y-151857110D01*
X83006277Y-150652002D01*
X83006207Y-150648010D01*
X83004737Y-149442210D01*
X83004797Y-149438217D01*
X83042749Y-148232993D01*
X83042943Y-148228963D01*
X83120278Y-147025646D01*
X83120596Y-147021703D01*
X83237236Y-145821497D01*
X83237693Y-145817493D01*
X83393492Y-144621886D01*
X83394081Y-144617875D01*
X83588896Y-143427927D01*
X83589617Y-143423937D01*
X83601162Y-143365479D01*
X83823227Y-142241023D01*
X83824060Y-142237134D01*
X84096243Y-141062387D01*
X84097204Y-141058528D01*
X84407626Y-139893392D01*
X84408729Y-139889508D01*
X84444221Y-139771896D01*
X84757084Y-138735120D01*
X84758314Y-138731275D01*
X85144202Y-137588959D01*
X85145562Y-137585139D01*
X85204601Y-137427560D01*
X85568626Y-136455954D01*
X85570074Y-136452275D01*
X86029832Y-135337518D01*
X86031392Y-135333904D01*
X86527351Y-134234771D01*
X86529070Y-134231123D01*
X86636389Y-134012635D01*
X87060678Y-133148834D01*
X87062467Y-133145337D01*
X87629224Y-132080916D01*
X87631127Y-132077479D01*
X88232350Y-131032209D01*
X88234418Y-131028748D01*
X88869461Y-130003743D01*
X88871589Y-130000429D01*
X89539852Y-128996666D01*
X89542139Y-128993352D01*
X90242807Y-128012046D01*
X90245195Y-128008814D01*
X90977585Y-127050923D01*
X90980049Y-127047807D01*
X91743410Y-126114317D01*
X91745971Y-126111288D01*
X92539395Y-125203309D01*
X92542100Y-125200315D01*
X92924010Y-124791077D01*
X93364788Y-124318758D01*
X93367559Y-124315885D01*
X94218621Y-123461705D01*
X94221521Y-123458888D01*
X94703737Y-123005562D01*
X95100065Y-122632977D01*
X95103011Y-122630297D01*
X96008116Y-121833526D01*
X96011119Y-121830968D01*
X96941790Y-121064215D01*
X96944891Y-121061744D01*
X97900125Y-120325832D01*
X97903326Y-120323449D01*
X98882117Y-119619156D01*
X98885357Y-119616904D01*
X99886682Y-118944965D01*
X99890008Y-118942812D01*
X100912699Y-118304013D01*
X100916130Y-118301946D01*
X101959156Y-117696926D01*
X101962666Y-117694966D01*
X103024960Y-117124344D01*
X103028440Y-117122547D01*
X104108831Y-116586957D01*
X104112419Y-116585251D01*
X105209723Y-116085278D01*
X105213354Y-116083694D01*
X106326469Y-115619842D01*
X106330097Y-115618399D01*
X107457782Y-115191187D01*
X107461459Y-115189862D01*
X108602468Y-114799759D01*
X108606278Y-114798525D01*
X109759390Y-114445949D01*
X109763232Y-114444842D01*
X110927278Y-114130146D01*
X110931118Y-114129175D01*
X112043836Y-113867072D01*
X112044182Y-113866991D01*
X112058038Y-113863769D01*
X112065892Y-113863769D01*
X112117432Y-113849958D01*
X112119420Y-113849496D01*
X112119516Y-113849501D01*
X112121045Y-113849129D01*
X112171149Y-113838190D01*
X112181705Y-113832737D01*
X112193186Y-113829661D01*
X112240106Y-113802571D01*
X112288236Y-113777711D01*
X112297022Y-113769710D01*
X112307314Y-113763769D01*
X112345616Y-113725466D01*
X112385680Y-113688989D01*
X112392098Y-113678984D01*
X112400500Y-113670583D01*
X112427582Y-113623674D01*
X112456841Y-113578069D01*
X112460450Y-113566745D01*
X112466392Y-113556455D01*
X112480412Y-113504128D01*
X112486414Y-113485301D01*
X112525530Y-113427410D01*
X112580637Y-113401296D01*
X113066195Y-113305868D01*
X113067733Y-113305576D01*
X113604352Y-113208253D01*
X113605961Y-113207973D01*
X114143968Y-113118515D01*
X114145493Y-113118273D01*
X114684550Y-113036736D01*
X114686299Y-113036484D01*
X115226619Y-112962831D01*
X115228178Y-112962630D01*
X115769449Y-112896909D01*
X115771169Y-112896712D01*
X116313381Y-112838920D01*
X116315013Y-112838758D01*
X116857956Y-112788919D01*
X116859669Y-112788775D01*
X117403346Y-112746888D01*
X117404961Y-112746775D01*
X117949181Y-112712856D01*
X117950817Y-112712765D01*
X118495535Y-112686817D01*
X118497139Y-112686753D01*
X119042189Y-112668785D01*
X119043802Y-112668744D01*
X119588988Y-112658761D01*
X119590615Y-112658744D01*
X120135851Y-112656748D01*
X120137534Y-112656753D01*
G37*
%TD.AperFunction*%
%TD*%
M02*
