%TF.GenerationSoftware,KiCad,Pcbnew,10.0.0*%
%TF.CreationDate,2026-08-17T00:00:17-04:00*%
%TF.ProjectId,v1-ornament-board,76312d6f-726e-4616-9d65-6e742d626f61,rev?*%
%TF.SameCoordinates,Original*%
%TF.FileFunction,Legend,Bot*%
%TF.FilePolarity,Positive*%
%FSLAX46Y46*%
G04 Gerber Fmt 4.6, Leading zero omitted, Abs format (unit mm)*
G04 Created by KiCad (PCBNEW 10.0.0) date 2026-08-17 00:00:17*
%MOMM*%
%LPD*%
G01*
G04 APERTURE LIST*
%ADD10C,0.250000*%
%ADD11C,0.300000*%
%ADD12C,0.150000*%
%ADD13C,0.106680*%
%ADD14C,0.508000*%
%ADD15C,0.120000*%
%ADD16C,0.100000*%
%ADD17C,0.127000*%
%ADD18C,0.503999*%
%ADD19C,0.504000*%
G04 APERTURE END LIST*
D10*
X149692669Y-164697952D02*
X149502193Y-165364619D01*
X149502193Y-165364619D02*
X149311717Y-164888428D01*
X149311717Y-164888428D02*
X149121241Y-165364619D01*
X149121241Y-165364619D02*
X148930765Y-164697952D01*
X148168860Y-165317000D02*
X148264098Y-165364619D01*
X148264098Y-165364619D02*
X148454574Y-165364619D01*
X148454574Y-165364619D02*
X148549812Y-165317000D01*
X148549812Y-165317000D02*
X148597431Y-165221761D01*
X148597431Y-165221761D02*
X148597431Y-164840809D01*
X148597431Y-164840809D02*
X148549812Y-164745571D01*
X148549812Y-164745571D02*
X148454574Y-164697952D01*
X148454574Y-164697952D02*
X148264098Y-164697952D01*
X148264098Y-164697952D02*
X148168860Y-164745571D01*
X148168860Y-164745571D02*
X148121241Y-164840809D01*
X148121241Y-164840809D02*
X148121241Y-164936047D01*
X148121241Y-164936047D02*
X148597431Y-165031285D01*
X147549812Y-165364619D02*
X147645050Y-165317000D01*
X147645050Y-165317000D02*
X147692669Y-165221761D01*
X147692669Y-165221761D02*
X147692669Y-164364619D01*
X146740288Y-165364619D02*
X146740288Y-164840809D01*
X146740288Y-164840809D02*
X146787907Y-164745571D01*
X146787907Y-164745571D02*
X146883145Y-164697952D01*
X146883145Y-164697952D02*
X147073621Y-164697952D01*
X147073621Y-164697952D02*
X147168859Y-164745571D01*
X146740288Y-165317000D02*
X146835526Y-165364619D01*
X146835526Y-165364619D02*
X147073621Y-165364619D01*
X147073621Y-165364619D02*
X147168859Y-165317000D01*
X147168859Y-165317000D02*
X147216478Y-165221761D01*
X147216478Y-165221761D02*
X147216478Y-165126523D01*
X147216478Y-165126523D02*
X147168859Y-165031285D01*
X147168859Y-165031285D02*
X147073621Y-164983666D01*
X147073621Y-164983666D02*
X146835526Y-164983666D01*
X146835526Y-164983666D02*
X146740288Y-164936047D01*
X146264097Y-165364619D02*
X146264097Y-164364619D01*
X145835526Y-165364619D02*
X145835526Y-164840809D01*
X145835526Y-164840809D02*
X145883145Y-164745571D01*
X145883145Y-164745571D02*
X145978383Y-164697952D01*
X145978383Y-164697952D02*
X146121240Y-164697952D01*
X146121240Y-164697952D02*
X146216478Y-164745571D01*
X146216478Y-164745571D02*
X146264097Y-164793190D01*
X145359335Y-165269380D02*
X145311716Y-165317000D01*
X145311716Y-165317000D02*
X145359335Y-165364619D01*
X145359335Y-165364619D02*
X145406954Y-165317000D01*
X145406954Y-165317000D02*
X145359335Y-165269380D01*
X145359335Y-165269380D02*
X145359335Y-165364619D01*
X144454574Y-165317000D02*
X144549812Y-165364619D01*
X144549812Y-165364619D02*
X144740288Y-165364619D01*
X144740288Y-165364619D02*
X144835526Y-165317000D01*
X144835526Y-165317000D02*
X144883145Y-165269380D01*
X144883145Y-165269380D02*
X144930764Y-165174142D01*
X144930764Y-165174142D02*
X144930764Y-164888428D01*
X144930764Y-164888428D02*
X144883145Y-164793190D01*
X144883145Y-164793190D02*
X144835526Y-164745571D01*
X144835526Y-164745571D02*
X144740288Y-164697952D01*
X144740288Y-164697952D02*
X144549812Y-164697952D01*
X144549812Y-164697952D02*
X144454574Y-164745571D01*
X143883145Y-165364619D02*
X143978383Y-165317000D01*
X143978383Y-165317000D02*
X144026002Y-165269380D01*
X144026002Y-165269380D02*
X144073621Y-165174142D01*
X144073621Y-165174142D02*
X144073621Y-164888428D01*
X144073621Y-164888428D02*
X144026002Y-164793190D01*
X144026002Y-164793190D02*
X143978383Y-164745571D01*
X143978383Y-164745571D02*
X143883145Y-164697952D01*
X143883145Y-164697952D02*
X143740288Y-164697952D01*
X143740288Y-164697952D02*
X143645050Y-164745571D01*
X143645050Y-164745571D02*
X143597431Y-164793190D01*
X143597431Y-164793190D02*
X143549812Y-164888428D01*
X143549812Y-164888428D02*
X143549812Y-165174142D01*
X143549812Y-165174142D02*
X143597431Y-165269380D01*
X143597431Y-165269380D02*
X143645050Y-165317000D01*
X143645050Y-165317000D02*
X143740288Y-165364619D01*
X143740288Y-165364619D02*
X143883145Y-165364619D01*
X143121240Y-165364619D02*
X143121240Y-164697952D01*
X143121240Y-164793190D02*
X143073621Y-164745571D01*
X143073621Y-164745571D02*
X142978383Y-164697952D01*
X142978383Y-164697952D02*
X142835526Y-164697952D01*
X142835526Y-164697952D02*
X142740288Y-164745571D01*
X142740288Y-164745571D02*
X142692669Y-164840809D01*
X142692669Y-164840809D02*
X142692669Y-165364619D01*
X142692669Y-164840809D02*
X142645050Y-164745571D01*
X142645050Y-164745571D02*
X142549812Y-164697952D01*
X142549812Y-164697952D02*
X142406955Y-164697952D01*
X142406955Y-164697952D02*
X142311716Y-164745571D01*
X142311716Y-164745571D02*
X142264097Y-164840809D01*
X142264097Y-164840809D02*
X142264097Y-165364619D01*
X141073622Y-164317000D02*
X141930764Y-165602714D01*
X140835526Y-165364619D02*
X140311717Y-164697952D01*
X140835526Y-164697952D02*
X140311717Y-165364619D01*
X139930764Y-165364619D02*
X139930764Y-164697952D01*
X139930764Y-164793190D02*
X139883145Y-164745571D01*
X139883145Y-164745571D02*
X139787907Y-164697952D01*
X139787907Y-164697952D02*
X139645050Y-164697952D01*
X139645050Y-164697952D02*
X139549812Y-164745571D01*
X139549812Y-164745571D02*
X139502193Y-164840809D01*
X139502193Y-164840809D02*
X139502193Y-165364619D01*
X139502193Y-164840809D02*
X139454574Y-164745571D01*
X139454574Y-164745571D02*
X139359336Y-164697952D01*
X139359336Y-164697952D02*
X139216479Y-164697952D01*
X139216479Y-164697952D02*
X139121240Y-164745571D01*
X139121240Y-164745571D02*
X139073621Y-164840809D01*
X139073621Y-164840809D02*
X139073621Y-165364619D01*
X138168860Y-165364619D02*
X138168860Y-164840809D01*
X138168860Y-164840809D02*
X138216479Y-164745571D01*
X138216479Y-164745571D02*
X138311717Y-164697952D01*
X138311717Y-164697952D02*
X138502193Y-164697952D01*
X138502193Y-164697952D02*
X138597431Y-164745571D01*
X138168860Y-165317000D02*
X138264098Y-165364619D01*
X138264098Y-165364619D02*
X138502193Y-165364619D01*
X138502193Y-165364619D02*
X138597431Y-165317000D01*
X138597431Y-165317000D02*
X138645050Y-165221761D01*
X138645050Y-165221761D02*
X138645050Y-165126523D01*
X138645050Y-165126523D02*
X138597431Y-165031285D01*
X138597431Y-165031285D02*
X138502193Y-164983666D01*
X138502193Y-164983666D02*
X138264098Y-164983666D01*
X138264098Y-164983666D02*
X138168860Y-164936047D01*
X137740288Y-165317000D02*
X137645050Y-165364619D01*
X137645050Y-165364619D02*
X137454574Y-165364619D01*
X137454574Y-165364619D02*
X137359336Y-165317000D01*
X137359336Y-165317000D02*
X137311717Y-165221761D01*
X137311717Y-165221761D02*
X137311717Y-165174142D01*
X137311717Y-165174142D02*
X137359336Y-165078904D01*
X137359336Y-165078904D02*
X137454574Y-165031285D01*
X137454574Y-165031285D02*
X137597431Y-165031285D01*
X137597431Y-165031285D02*
X137692669Y-164983666D01*
X137692669Y-164983666D02*
X137740288Y-164888428D01*
X137740288Y-164888428D02*
X137740288Y-164840809D01*
X137740288Y-164840809D02*
X137692669Y-164745571D01*
X137692669Y-164745571D02*
X137597431Y-164697952D01*
X137597431Y-164697952D02*
X137454574Y-164697952D01*
X137454574Y-164697952D02*
X137359336Y-164745571D01*
X136930764Y-164459857D02*
X136883145Y-164412238D01*
X136883145Y-164412238D02*
X136787907Y-164364619D01*
X136787907Y-164364619D02*
X136549812Y-164364619D01*
X136549812Y-164364619D02*
X136454574Y-164412238D01*
X136454574Y-164412238D02*
X136406955Y-164459857D01*
X136406955Y-164459857D02*
X136359336Y-164555095D01*
X136359336Y-164555095D02*
X136359336Y-164650333D01*
X136359336Y-164650333D02*
X136406955Y-164793190D01*
X136406955Y-164793190D02*
X136978383Y-165364619D01*
X136978383Y-165364619D02*
X136359336Y-165364619D01*
X135740288Y-164364619D02*
X135645050Y-164364619D01*
X135645050Y-164364619D02*
X135549812Y-164412238D01*
X135549812Y-164412238D02*
X135502193Y-164459857D01*
X135502193Y-164459857D02*
X135454574Y-164555095D01*
X135454574Y-164555095D02*
X135406955Y-164745571D01*
X135406955Y-164745571D02*
X135406955Y-164983666D01*
X135406955Y-164983666D02*
X135454574Y-165174142D01*
X135454574Y-165174142D02*
X135502193Y-165269380D01*
X135502193Y-165269380D02*
X135549812Y-165317000D01*
X135549812Y-165317000D02*
X135645050Y-165364619D01*
X135645050Y-165364619D02*
X135740288Y-165364619D01*
X135740288Y-165364619D02*
X135835526Y-165317000D01*
X135835526Y-165317000D02*
X135883145Y-165269380D01*
X135883145Y-165269380D02*
X135930764Y-165174142D01*
X135930764Y-165174142D02*
X135978383Y-164983666D01*
X135978383Y-164983666D02*
X135978383Y-164745571D01*
X135978383Y-164745571D02*
X135930764Y-164555095D01*
X135930764Y-164555095D02*
X135883145Y-164459857D01*
X135883145Y-164459857D02*
X135835526Y-164412238D01*
X135835526Y-164412238D02*
X135740288Y-164364619D01*
X135026002Y-164459857D02*
X134978383Y-164412238D01*
X134978383Y-164412238D02*
X134883145Y-164364619D01*
X134883145Y-164364619D02*
X134645050Y-164364619D01*
X134645050Y-164364619D02*
X134549812Y-164412238D01*
X134549812Y-164412238D02*
X134502193Y-164459857D01*
X134502193Y-164459857D02*
X134454574Y-164555095D01*
X134454574Y-164555095D02*
X134454574Y-164650333D01*
X134454574Y-164650333D02*
X134502193Y-164793190D01*
X134502193Y-164793190D02*
X135073621Y-165364619D01*
X135073621Y-165364619D02*
X134454574Y-165364619D01*
X133597431Y-164364619D02*
X133787907Y-164364619D01*
X133787907Y-164364619D02*
X133883145Y-164412238D01*
X133883145Y-164412238D02*
X133930764Y-164459857D01*
X133930764Y-164459857D02*
X134026002Y-164602714D01*
X134026002Y-164602714D02*
X134073621Y-164793190D01*
X134073621Y-164793190D02*
X134073621Y-165174142D01*
X134073621Y-165174142D02*
X134026002Y-165269380D01*
X134026002Y-165269380D02*
X133978383Y-165317000D01*
X133978383Y-165317000D02*
X133883145Y-165364619D01*
X133883145Y-165364619D02*
X133692669Y-165364619D01*
X133692669Y-165364619D02*
X133597431Y-165317000D01*
X133597431Y-165317000D02*
X133549812Y-165269380D01*
X133549812Y-165269380D02*
X133502193Y-165174142D01*
X133502193Y-165174142D02*
X133502193Y-164936047D01*
X133502193Y-164936047D02*
X133549812Y-164840809D01*
X133549812Y-164840809D02*
X133597431Y-164793190D01*
X133597431Y-164793190D02*
X133692669Y-164745571D01*
X133692669Y-164745571D02*
X133883145Y-164745571D01*
X133883145Y-164745571D02*
X133978383Y-164793190D01*
X133978383Y-164793190D02*
X134026002Y-164840809D01*
X134026002Y-164840809D02*
X134073621Y-164936047D01*
D11*
X144214285Y-166470996D02*
X143214285Y-167970996D01*
X143214285Y-166470996D02*
X144214285Y-167970996D01*
X142642857Y-167970996D02*
X142642857Y-166470996D01*
X142642857Y-166470996D02*
X142142857Y-167542425D01*
X142142857Y-167542425D02*
X141642857Y-166470996D01*
X141642857Y-166470996D02*
X141642857Y-167970996D01*
X140999999Y-167542425D02*
X140285714Y-167542425D01*
X141142856Y-167970996D02*
X140642856Y-166470996D01*
X140642856Y-166470996D02*
X140142856Y-167970996D01*
X139714285Y-167899568D02*
X139500000Y-167970996D01*
X139500000Y-167970996D02*
X139142857Y-167970996D01*
X139142857Y-167970996D02*
X139000000Y-167899568D01*
X139000000Y-167899568D02*
X138928571Y-167828139D01*
X138928571Y-167828139D02*
X138857142Y-167685282D01*
X138857142Y-167685282D02*
X138857142Y-167542425D01*
X138857142Y-167542425D02*
X138928571Y-167399568D01*
X138928571Y-167399568D02*
X139000000Y-167328139D01*
X139000000Y-167328139D02*
X139142857Y-167256710D01*
X139142857Y-167256710D02*
X139428571Y-167185282D01*
X139428571Y-167185282D02*
X139571428Y-167113853D01*
X139571428Y-167113853D02*
X139642857Y-167042425D01*
X139642857Y-167042425D02*
X139714285Y-166899568D01*
X139714285Y-166899568D02*
X139714285Y-166756710D01*
X139714285Y-166756710D02*
X139642857Y-166613853D01*
X139642857Y-166613853D02*
X139571428Y-166542425D01*
X139571428Y-166542425D02*
X139428571Y-166470996D01*
X139428571Y-166470996D02*
X139071428Y-166470996D01*
X139071428Y-166470996D02*
X138857142Y-166542425D01*
X144071427Y-169028769D02*
X143999999Y-168957341D01*
X143999999Y-168957341D02*
X143857142Y-168885912D01*
X143857142Y-168885912D02*
X143499999Y-168885912D01*
X143499999Y-168885912D02*
X143357142Y-168957341D01*
X143357142Y-168957341D02*
X143285713Y-169028769D01*
X143285713Y-169028769D02*
X143214284Y-169171626D01*
X143214284Y-169171626D02*
X143214284Y-169314484D01*
X143214284Y-169314484D02*
X143285713Y-169528769D01*
X143285713Y-169528769D02*
X144142856Y-170385912D01*
X144142856Y-170385912D02*
X143214284Y-170385912D01*
X142285713Y-168885912D02*
X142142856Y-168885912D01*
X142142856Y-168885912D02*
X141999999Y-168957341D01*
X141999999Y-168957341D02*
X141928571Y-169028769D01*
X141928571Y-169028769D02*
X141857142Y-169171626D01*
X141857142Y-169171626D02*
X141785713Y-169457341D01*
X141785713Y-169457341D02*
X141785713Y-169814484D01*
X141785713Y-169814484D02*
X141857142Y-170100198D01*
X141857142Y-170100198D02*
X141928571Y-170243055D01*
X141928571Y-170243055D02*
X141999999Y-170314484D01*
X141999999Y-170314484D02*
X142142856Y-170385912D01*
X142142856Y-170385912D02*
X142285713Y-170385912D01*
X142285713Y-170385912D02*
X142428571Y-170314484D01*
X142428571Y-170314484D02*
X142499999Y-170243055D01*
X142499999Y-170243055D02*
X142571428Y-170100198D01*
X142571428Y-170100198D02*
X142642856Y-169814484D01*
X142642856Y-169814484D02*
X142642856Y-169457341D01*
X142642856Y-169457341D02*
X142571428Y-169171626D01*
X142571428Y-169171626D02*
X142499999Y-169028769D01*
X142499999Y-169028769D02*
X142428571Y-168957341D01*
X142428571Y-168957341D02*
X142285713Y-168885912D01*
X141214285Y-169028769D02*
X141142857Y-168957341D01*
X141142857Y-168957341D02*
X141000000Y-168885912D01*
X141000000Y-168885912D02*
X140642857Y-168885912D01*
X140642857Y-168885912D02*
X140500000Y-168957341D01*
X140500000Y-168957341D02*
X140428571Y-169028769D01*
X140428571Y-169028769D02*
X140357142Y-169171626D01*
X140357142Y-169171626D02*
X140357142Y-169314484D01*
X140357142Y-169314484D02*
X140428571Y-169528769D01*
X140428571Y-169528769D02*
X141285714Y-170385912D01*
X141285714Y-170385912D02*
X140357142Y-170385912D01*
X139071429Y-168885912D02*
X139357143Y-168885912D01*
X139357143Y-168885912D02*
X139500000Y-168957341D01*
X139500000Y-168957341D02*
X139571429Y-169028769D01*
X139571429Y-169028769D02*
X139714286Y-169243055D01*
X139714286Y-169243055D02*
X139785714Y-169528769D01*
X139785714Y-169528769D02*
X139785714Y-170100198D01*
X139785714Y-170100198D02*
X139714286Y-170243055D01*
X139714286Y-170243055D02*
X139642857Y-170314484D01*
X139642857Y-170314484D02*
X139500000Y-170385912D01*
X139500000Y-170385912D02*
X139214286Y-170385912D01*
X139214286Y-170385912D02*
X139071429Y-170314484D01*
X139071429Y-170314484D02*
X139000000Y-170243055D01*
X139000000Y-170243055D02*
X138928571Y-170100198D01*
X138928571Y-170100198D02*
X138928571Y-169743055D01*
X138928571Y-169743055D02*
X139000000Y-169600198D01*
X139000000Y-169600198D02*
X139071429Y-169528769D01*
X139071429Y-169528769D02*
X139214286Y-169457341D01*
X139214286Y-169457341D02*
X139500000Y-169457341D01*
X139500000Y-169457341D02*
X139642857Y-169528769D01*
X139642857Y-169528769D02*
X139714286Y-169600198D01*
X139714286Y-169600198D02*
X139785714Y-169743055D01*
X143785713Y-171300828D02*
X143285713Y-172800828D01*
X143285713Y-172800828D02*
X142785713Y-171300828D01*
X141499999Y-172800828D02*
X142357142Y-172800828D01*
X141928571Y-172800828D02*
X141928571Y-171300828D01*
X141928571Y-171300828D02*
X142071428Y-171515114D01*
X142071428Y-171515114D02*
X142214285Y-171657971D01*
X142214285Y-171657971D02*
X142357142Y-171729400D01*
X140857143Y-172657971D02*
X140785714Y-172729400D01*
X140785714Y-172729400D02*
X140857143Y-172800828D01*
X140857143Y-172800828D02*
X140928571Y-172729400D01*
X140928571Y-172729400D02*
X140857143Y-172657971D01*
X140857143Y-172657971D02*
X140857143Y-172800828D01*
X139857142Y-171300828D02*
X139714285Y-171300828D01*
X139714285Y-171300828D02*
X139571428Y-171372257D01*
X139571428Y-171372257D02*
X139500000Y-171443685D01*
X139500000Y-171443685D02*
X139428571Y-171586542D01*
X139428571Y-171586542D02*
X139357142Y-171872257D01*
X139357142Y-171872257D02*
X139357142Y-172229400D01*
X139357142Y-172229400D02*
X139428571Y-172515114D01*
X139428571Y-172515114D02*
X139500000Y-172657971D01*
X139500000Y-172657971D02*
X139571428Y-172729400D01*
X139571428Y-172729400D02*
X139714285Y-172800828D01*
X139714285Y-172800828D02*
X139857142Y-172800828D01*
X139857142Y-172800828D02*
X140000000Y-172729400D01*
X140000000Y-172729400D02*
X140071428Y-172657971D01*
X140071428Y-172657971D02*
X140142857Y-172515114D01*
X140142857Y-172515114D02*
X140214285Y-172229400D01*
X140214285Y-172229400D02*
X140214285Y-171872257D01*
X140214285Y-171872257D02*
X140142857Y-171586542D01*
X140142857Y-171586542D02*
X140071428Y-171443685D01*
X140071428Y-171443685D02*
X140000000Y-171372257D01*
X140000000Y-171372257D02*
X139857142Y-171300828D01*
D12*
X87154819Y-149666666D02*
X87869104Y-149666666D01*
X87869104Y-149666666D02*
X88011961Y-149619047D01*
X88011961Y-149619047D02*
X88107200Y-149523809D01*
X88107200Y-149523809D02*
X88154819Y-149380952D01*
X88154819Y-149380952D02*
X88154819Y-149285714D01*
X88154819Y-150666666D02*
X88154819Y-150095238D01*
X88154819Y-150380952D02*
X87154819Y-150380952D01*
X87154819Y-150380952D02*
X87297676Y-150285714D01*
X87297676Y-150285714D02*
X87392914Y-150190476D01*
X87392914Y-150190476D02*
X87440533Y-150095238D01*
D13*
X118032555Y-185849477D02*
X118032555Y-186482784D01*
X118032555Y-186482784D02*
X117995302Y-186557290D01*
X117995302Y-186557290D02*
X117958048Y-186594544D01*
X117958048Y-186594544D02*
X117883542Y-186631797D01*
X117883542Y-186631797D02*
X117734528Y-186631797D01*
X117734528Y-186631797D02*
X117660022Y-186594544D01*
X117660022Y-186594544D02*
X117622768Y-186557290D01*
X117622768Y-186557290D02*
X117585515Y-186482784D01*
X117585515Y-186482784D02*
X117585515Y-185849477D01*
X116803195Y-186631797D02*
X117250235Y-186631797D01*
X117026715Y-186631797D02*
X117026715Y-185849477D01*
X117026715Y-185849477D02*
X117101222Y-185961237D01*
X117101222Y-185961237D02*
X117175729Y-186035744D01*
X117175729Y-186035744D02*
X117250235Y-186072997D01*
D12*
X91954819Y-156309524D02*
X90954819Y-156309524D01*
X90954819Y-156309524D02*
X90954819Y-156547619D01*
X90954819Y-156547619D02*
X91002438Y-156690476D01*
X91002438Y-156690476D02*
X91097676Y-156785714D01*
X91097676Y-156785714D02*
X91192914Y-156833333D01*
X91192914Y-156833333D02*
X91383390Y-156880952D01*
X91383390Y-156880952D02*
X91526247Y-156880952D01*
X91526247Y-156880952D02*
X91716723Y-156833333D01*
X91716723Y-156833333D02*
X91811961Y-156785714D01*
X91811961Y-156785714D02*
X91907200Y-156690476D01*
X91907200Y-156690476D02*
X91954819Y-156547619D01*
X91954819Y-156547619D02*
X91954819Y-156309524D01*
X91954819Y-157833333D02*
X91954819Y-157261905D01*
X91954819Y-157547619D02*
X90954819Y-157547619D01*
X90954819Y-157547619D02*
X91097676Y-157452381D01*
X91097676Y-157452381D02*
X91192914Y-157357143D01*
X91192914Y-157357143D02*
X91240533Y-157261905D01*
X91050057Y-158214286D02*
X91002438Y-158261905D01*
X91002438Y-158261905D02*
X90954819Y-158357143D01*
X90954819Y-158357143D02*
X90954819Y-158595238D01*
X90954819Y-158595238D02*
X91002438Y-158690476D01*
X91002438Y-158690476D02*
X91050057Y-158738095D01*
X91050057Y-158738095D02*
X91145295Y-158785714D01*
X91145295Y-158785714D02*
X91240533Y-158785714D01*
X91240533Y-158785714D02*
X91383390Y-158738095D01*
X91383390Y-158738095D02*
X91954819Y-158166667D01*
X91954819Y-158166667D02*
X91954819Y-158785714D01*
X90954819Y-159119048D02*
X90954819Y-159738095D01*
X90954819Y-159738095D02*
X91335771Y-159404762D01*
X91335771Y-159404762D02*
X91335771Y-159547619D01*
X91335771Y-159547619D02*
X91383390Y-159642857D01*
X91383390Y-159642857D02*
X91431009Y-159690476D01*
X91431009Y-159690476D02*
X91526247Y-159738095D01*
X91526247Y-159738095D02*
X91764342Y-159738095D01*
X91764342Y-159738095D02*
X91859580Y-159690476D01*
X91859580Y-159690476D02*
X91907200Y-159642857D01*
X91907200Y-159642857D02*
X91954819Y-159547619D01*
X91954819Y-159547619D02*
X91954819Y-159261905D01*
X91954819Y-159261905D02*
X91907200Y-159166667D01*
X91907200Y-159166667D02*
X91859580Y-159119048D01*
%TO.C,SW1*%
D14*
X118044139Y-175960879D02*
G75*
G02*
X117282139Y-175960879I-381000J0D01*
G01*
X117282139Y-175960879D02*
G75*
G02*
X118044139Y-175960879I381000J0D01*
G01*
%TO.C,J1*%
D15*
X90190000Y-145940000D02*
X90190000Y-146960000D01*
X90190000Y-146960000D02*
X91790000Y-146960000D01*
X90190000Y-153040000D02*
X91790000Y-153040000D01*
X90190000Y-154060000D02*
X90190000Y-153040000D01*
X91789999Y-148240000D02*
X88900000Y-148240000D01*
X91790000Y-146960000D02*
X91789999Y-148240000D01*
X91790000Y-153040000D02*
X91789999Y-151760000D01*
X94440000Y-145940000D02*
X90190000Y-145940000D01*
X94440000Y-154060000D02*
X90190000Y-154060000D01*
X98010000Y-147660001D02*
X98010000Y-152339999D01*
%TO.C,U1*%
D16*
X111178006Y-167384386D02*
X111178006Y-184529386D01*
X113083006Y-165479385D02*
X127053006Y-165479386D01*
X113083006Y-165479385D02*
X127053006Y-165479386D01*
D17*
X115573006Y-186434386D02*
X115576734Y-187444658D01*
X116076734Y-187944386D02*
X124072006Y-187944386D01*
X124572006Y-187444386D02*
X124572006Y-186434386D01*
X124572006Y-187444386D02*
X124572006Y-186434386D01*
D16*
X127053006Y-186434386D02*
X113083006Y-186434386D01*
X127053006Y-186434386D02*
X113083006Y-186434386D01*
X127053006Y-186434386D02*
X113083006Y-186434386D01*
X127053006Y-186434386D02*
X113083006Y-186434386D01*
X128958006Y-167384386D02*
X128958006Y-184529386D01*
X111178006Y-167384386D02*
G75*
G02*
X113083006Y-165479385I1905003J-2D01*
G01*
X113083006Y-186438385D02*
G75*
G02*
X111178007Y-184533386I23J1905022D01*
G01*
D17*
X116076734Y-187944386D02*
G75*
G02*
X115576736Y-187444658I22J500020D01*
G01*
X124572006Y-187444386D02*
G75*
G02*
X124072006Y-187944386I-500000J0D01*
G01*
D16*
X127053006Y-165479386D02*
G75*
G02*
X128958006Y-167384386I0J-1905000D01*
G01*
X128958006Y-184529386D02*
G75*
G02*
X127053006Y-186434386I-1905000J0D01*
G01*
D18*
X111203993Y-186030398D02*
G75*
G02*
X110699995Y-186030398I-251999J0D01*
G01*
X110699995Y-186030398D02*
G75*
G02*
X111203993Y-186030398I251999J0D01*
G01*
D19*
X112420994Y-185307398D02*
G75*
G02*
X111916994Y-185307398I-252000J0D01*
G01*
X111916994Y-185307398D02*
G75*
G02*
X112420994Y-185307398I252000J0D01*
G01*
%TO.C,D123*%
D15*
X87350000Y-161510000D02*
X87350000Y-156000000D01*
X90650000Y-161510000D02*
X87350000Y-161510000D01*
X90650000Y-161510000D02*
X90650000Y-156000000D01*
%TD*%
M02*
