%TF.GenerationSoftware,KiCad,Pcbnew,10.0.0*%
%TF.CreationDate,2026-08-15T02:37:49-04:00*%
%TF.ProjectId,v1-ornament-board,76312d6f-726e-4616-9d65-6e742d626f61,rev?*%
%TF.SameCoordinates,Original*%
%TF.FileFunction,Soldermask,Top*%
%TF.FilePolarity,Negative*%
%FSLAX46Y46*%
G04 Gerber Fmt 4.6, Leading zero omitted, Abs format (unit mm)*
G04 Created by KiCad (PCBNEW 10.0.0) date 2026-08-15 02:37:49*
%MOMM*%
%LPD*%
G01*
G04 APERTURE LIST*
G04 Aperture macros list*
%AMRoundRect*
0 Rectangle with rounded corners*
0 $1 Rounding radius*
0 $2 $3 $4 $5 $6 $7 $8 $9 X,Y pos of 4 corners*
0 Add a 4 corners polygon primitive as box body*
4,1,4,$2,$3,$4,$5,$6,$7,$8,$9,$2,$3,0*
0 Add four circle primitives for the rounded corners*
1,1,$1+$1,$2,$3*
1,1,$1+$1,$4,$5*
1,1,$1+$1,$6,$7*
1,1,$1+$1,$8,$9*
0 Add four rect primitives between the rounded corners*
20,1,$1+$1,$2,$3,$4,$5,0*
20,1,$1+$1,$4,$5,$6,$7,0*
20,1,$1+$1,$6,$7,$8,$9,0*
20,1,$1+$1,$8,$9,$2,$3,0*%
%AMRotRect*
0 Rectangle, with rotation*
0 The origin of the aperture is its center*
0 $1 length*
0 $2 width*
0 $3 Rotation angle, in degrees counterclockwise*
0 Add horizontal line*
21,1,$1,$2,0,0,$3*%
G04 Aperture macros list end*
%ADD10RotRect,0.800000X0.800000X225.000000*%
%ADD11RoundRect,0.140000X-0.219203X-0.021213X-0.021213X-0.219203X0.219203X0.021213X0.021213X0.219203X0*%
%ADD12RotRect,0.800000X0.800000X45.000000*%
%ADD13RoundRect,0.135000X-0.135000X-0.185000X0.135000X-0.185000X0.135000X0.185000X-0.135000X0.185000X0*%
%ADD14RoundRect,0.140000X0.219203X0.021213X0.021213X0.219203X-0.219203X-0.021213X-0.021213X-0.219203X0*%
%ADD15RoundRect,0.140000X0.021213X-0.219203X0.219203X-0.021213X-0.021213X0.219203X-0.219203X0.021213X0*%
%ADD16RoundRect,0.140000X0.170000X-0.140000X0.170000X0.140000X-0.170000X0.140000X-0.170000X-0.140000X0*%
%ADD17RoundRect,0.218750X-0.218750X-0.256250X0.218750X-0.256250X0.218750X0.256250X-0.218750X0.256250X0*%
%ADD18RotRect,1.346200X0.990600X315.000000*%
%ADD19RotRect,2.006600X1.803400X315.000000*%
%ADD20C,1.270000*%
%ADD21C,1.549400*%
G04 APERTURE END LIST*
D10*
%TO.C,D27*%
X107995908Y-166726274D03*
X108773726Y-167504092D03*
X109997021Y-166280797D03*
X109219203Y-165502979D03*
%TD*%
D11*
%TO.C,C48*%
X118437294Y-156482879D03*
X119116116Y-157161701D03*
%TD*%
D12*
%TO.C,D111*%
X143004092Y-127773726D03*
X142226274Y-126995908D03*
X141002979Y-128219203D03*
X141780797Y-128997021D03*
%TD*%
D13*
%TO.C,R1*%
X94990001Y-165000000D03*
X96009999Y-165000000D03*
%TD*%
D10*
%TO.C,D23*%
X129995908Y-166726274D03*
X130773726Y-167504092D03*
X131997021Y-166280797D03*
X131219203Y-165502979D03*
%TD*%
D12*
%TO.C,D34*%
X110004092Y-160773726D03*
X109226274Y-159995908D03*
X108002979Y-161219203D03*
X108780797Y-161997021D03*
%TD*%
D14*
%TO.C,C120*%
X121562706Y-116017121D03*
X120883884Y-115338299D03*
%TD*%
D12*
%TO.C,D35*%
X115504092Y-160773726D03*
X114726274Y-159995908D03*
X113502979Y-161219203D03*
X114280797Y-161997021D03*
%TD*%
D14*
%TO.C,C36*%
X121562706Y-160017121D03*
X120883884Y-159338299D03*
%TD*%
%TO.C,C87*%
X127062706Y-138017121D03*
X126383884Y-137338299D03*
%TD*%
D11*
%TO.C,C113*%
X129437294Y-123482879D03*
X130116116Y-124161701D03*
%TD*%
D12*
%TO.C,D105*%
X110004092Y-127773726D03*
X109226274Y-126995908D03*
X108002979Y-128219203D03*
X108780797Y-128997021D03*
%TD*%
D10*
%TO.C,D70*%
X140995908Y-144726274D03*
X141773726Y-145504092D03*
X142997021Y-144280797D03*
X142219203Y-143502979D03*
%TD*%
%TO.C,D73*%
X124495908Y-144726274D03*
X125273726Y-145504092D03*
X126497021Y-144280797D03*
X125719203Y-143502979D03*
%TD*%
D11*
%TO.C,C75*%
X112937294Y-145482879D03*
X113616116Y-146161701D03*
%TD*%
D15*
%TO.C,C122*%
X134160589Y-175839411D03*
X134839411Y-175160589D03*
%TD*%
D10*
%TO.C,D28*%
X102495908Y-166726274D03*
X103273726Y-167504092D03*
X104497021Y-166280797D03*
X103719203Y-165502979D03*
%TD*%
D11*
%TO.C,C30*%
X90937294Y-167482879D03*
X91616116Y-168161701D03*
%TD*%
D14*
%TO.C,C37*%
X127062706Y-160017121D03*
X126383884Y-159338299D03*
%TD*%
D11*
%TO.C,C117*%
X107437294Y-123482879D03*
X108116116Y-124161701D03*
%TD*%
%TO.C,C54*%
X85437294Y-156482879D03*
X86116116Y-157161701D03*
%TD*%
%TO.C,C9*%
X107437294Y-178482879D03*
X108116116Y-179161701D03*
%TD*%
D10*
%TO.C,D78*%
X96995908Y-144726274D03*
X97773726Y-145504092D03*
X98997021Y-144280797D03*
X98219203Y-143502979D03*
%TD*%
D14*
%TO.C,C107*%
X121562706Y-127017121D03*
X120883884Y-126338299D03*
%TD*%
D12*
%TO.C,D82*%
X99004092Y-138773726D03*
X98226274Y-137995908D03*
X97002979Y-139219203D03*
X97780797Y-139997021D03*
%TD*%
%TO.C,D18*%
X137504092Y-171773726D03*
X136726274Y-170995908D03*
X135502979Y-172219203D03*
X136280797Y-172997021D03*
%TD*%
%TO.C,D14*%
X115504092Y-171773726D03*
X114726274Y-170995908D03*
X113502979Y-172219203D03*
X114280797Y-172997021D03*
%TD*%
%TO.C,D31*%
X93504092Y-160773726D03*
X92726274Y-159995908D03*
X91502979Y-161219203D03*
X92280797Y-161997021D03*
%TD*%
D11*
%TO.C,C115*%
X118437294Y-123482879D03*
X119116116Y-124161701D03*
%TD*%
D14*
%TO.C,C11*%
X99562706Y-171017121D03*
X98883884Y-170338299D03*
%TD*%
D11*
%TO.C,C93*%
X140437294Y-134482879D03*
X141116116Y-135161701D03*
%TD*%
%TO.C,C116*%
X112937294Y-123482879D03*
X113616116Y-124161701D03*
%TD*%
D14*
%TO.C,C91*%
X149062706Y-138017121D03*
X148383884Y-137338299D03*
%TD*%
D11*
%TO.C,C43*%
X145937294Y-156482879D03*
X146616116Y-157161701D03*
%TD*%
D12*
%TO.C,D106*%
X115504092Y-127773726D03*
X114726274Y-126995908D03*
X113502979Y-128219203D03*
X114280797Y-128997021D03*
%TD*%
%TO.C,D59*%
X110004092Y-149773726D03*
X109226274Y-148995908D03*
X108002979Y-150219203D03*
X108780797Y-150997021D03*
%TD*%
D14*
%TO.C,C34*%
X110562706Y-160017121D03*
X109883884Y-159338299D03*
%TD*%
%TO.C,C60*%
X116062706Y-149017121D03*
X115383884Y-148338299D03*
%TD*%
D12*
%TO.C,D61*%
X121004092Y-149773726D03*
X120226274Y-148995908D03*
X119002979Y-150219203D03*
X119780797Y-150997021D03*
%TD*%
D11*
%TO.C,C5*%
X129437294Y-178482879D03*
X130116116Y-179161701D03*
%TD*%
D14*
%TO.C,C31*%
X94062706Y-160017121D03*
X93383884Y-159338299D03*
%TD*%
D12*
%TO.C,D63*%
X132004092Y-149773726D03*
X131226274Y-148995908D03*
X130002979Y-150219203D03*
X130780797Y-150997021D03*
%TD*%
D14*
%TO.C,C40*%
X143562706Y-160017121D03*
X142883884Y-159338299D03*
%TD*%
%TO.C,C65*%
X143562706Y-149017121D03*
X142883884Y-148338299D03*
%TD*%
D10*
%TO.C,D53*%
X91495908Y-155726274D03*
X92273726Y-156504092D03*
X93497021Y-155280797D03*
X92719203Y-154502979D03*
%TD*%
D14*
%TO.C,C15*%
X121562706Y-171017121D03*
X120883884Y-170338299D03*
%TD*%
D10*
%TO.C,D80*%
X85995908Y-144726274D03*
X86773726Y-145504092D03*
X87997021Y-144280797D03*
X87219203Y-143502979D03*
%TD*%
D12*
%TO.C,D86*%
X121004092Y-138773726D03*
X120226274Y-137995908D03*
X119002979Y-139219203D03*
X119780797Y-139997021D03*
%TD*%
D11*
%TO.C,C10*%
X101937294Y-178482879D03*
X102616116Y-179161701D03*
%TD*%
%TO.C,C118*%
X101937294Y-123482879D03*
X102616116Y-124161701D03*
%TD*%
D10*
%TO.C,D52*%
X96995908Y-155726274D03*
X97773726Y-156504092D03*
X98997021Y-155280797D03*
X98219203Y-154502979D03*
%TD*%
%TO.C,D72*%
X129995908Y-144726274D03*
X130773726Y-145504092D03*
X131997021Y-144280797D03*
X131219203Y-143502979D03*
%TD*%
D14*
%TO.C,C35*%
X116062706Y-160017121D03*
X115383884Y-159338299D03*
%TD*%
D10*
%TO.C,D54*%
X85995908Y-155726274D03*
X86773726Y-156504092D03*
X87997021Y-155280797D03*
X87219203Y-154502979D03*
%TD*%
D12*
%TO.C,D83*%
X104504092Y-138773726D03*
X103726274Y-137995908D03*
X102502979Y-139219203D03*
X103280797Y-139997021D03*
%TD*%
D11*
%TO.C,C73*%
X123937294Y-145482879D03*
X124616116Y-146161701D03*
%TD*%
D14*
%TO.C,C90*%
X143562706Y-138017121D03*
X142883884Y-137338299D03*
%TD*%
D11*
%TO.C,C100*%
X101937294Y-134482879D03*
X102616116Y-135161701D03*
%TD*%
%TO.C,C76*%
X107437294Y-145482879D03*
X108116116Y-146161701D03*
%TD*%
D14*
%TO.C,C67*%
X154562706Y-149017121D03*
X153883884Y-148338299D03*
%TD*%
D10*
%TO.C,D118*%
X102495908Y-122726274D03*
X103273726Y-123504092D03*
X104497021Y-122280797D03*
X103719203Y-121502979D03*
%TD*%
%TO.C,D49*%
X113495908Y-155726274D03*
X114273726Y-156504092D03*
X115497021Y-155280797D03*
X114719203Y-154502979D03*
%TD*%
D14*
%TO.C,C106*%
X116062706Y-127017121D03*
X115383884Y-126338299D03*
%TD*%
D12*
%TO.C,D33*%
X104504092Y-160773726D03*
X103726274Y-159995908D03*
X102502979Y-161219203D03*
X103280797Y-161997021D03*
%TD*%
D11*
%TO.C,C22*%
X134937294Y-167482879D03*
X135616116Y-168161701D03*
%TD*%
D12*
%TO.C,D58*%
X104504092Y-149773726D03*
X103726274Y-148995908D03*
X102502979Y-150219203D03*
X103280797Y-150997021D03*
%TD*%
D16*
%TO.C,C124*%
X99929272Y-169759868D03*
X99929272Y-168799868D03*
%TD*%
D11*
%TO.C,C26*%
X112937294Y-167482879D03*
X113616116Y-168161701D03*
%TD*%
%TO.C,C102*%
X90937294Y-134482879D03*
X91616116Y-135161701D03*
%TD*%
D12*
%TO.C,D64*%
X137504092Y-149773726D03*
X136726274Y-148995908D03*
X135502979Y-150219203D03*
X136280797Y-150997021D03*
%TD*%
D14*
%TO.C,C104*%
X105062706Y-127017121D03*
X104383884Y-126338299D03*
%TD*%
D10*
%TO.C,D22*%
X135495908Y-166726274D03*
X136273726Y-167504092D03*
X137497021Y-166280797D03*
X136719203Y-165502979D03*
%TD*%
D14*
%TO.C,C16*%
X127062706Y-171017121D03*
X126383884Y-170338299D03*
%TD*%
D11*
%TO.C,C69*%
X145937294Y-145482879D03*
X146616116Y-146161701D03*
%TD*%
D10*
%TO.C,D93*%
X140995908Y-133726274D03*
X141773726Y-134504092D03*
X142997021Y-133280797D03*
X142219203Y-132502979D03*
%TD*%
%TO.C,D96*%
X124495908Y-133726274D03*
X125273726Y-134504092D03*
X126497021Y-133280797D03*
X125719203Y-132502979D03*
%TD*%
D14*
%TO.C,C121*%
X127062706Y-116017121D03*
X126383884Y-115338299D03*
%TD*%
%TO.C,C57*%
X99562706Y-149017121D03*
X98883884Y-148338299D03*
%TD*%
D10*
%TO.C,D46*%
X129995908Y-155726274D03*
X130773726Y-156504092D03*
X131997021Y-155280797D03*
X131219203Y-154502979D03*
%TD*%
D14*
%TO.C,C12*%
X105062706Y-171017121D03*
X104383884Y-170338299D03*
%TD*%
D10*
%TO.C,D117*%
X107995908Y-122726274D03*
X108773726Y-123504092D03*
X109997021Y-122280797D03*
X109219203Y-121502979D03*
%TD*%
%TO.C,D9*%
X107995908Y-177726274D03*
X108773726Y-178504092D03*
X109997021Y-177280797D03*
X109219203Y-176502979D03*
%TD*%
%TO.C,D75*%
X113495908Y-144726274D03*
X114273726Y-145504092D03*
X115497021Y-144280797D03*
X114719203Y-143502979D03*
%TD*%
D14*
%TO.C,C38*%
X132562706Y-160017121D03*
X131883884Y-159338299D03*
%TD*%
D12*
%TO.C,D109*%
X132004092Y-127773726D03*
X131226274Y-126995908D03*
X130002979Y-128219203D03*
X130780797Y-128997021D03*
%TD*%
D14*
%TO.C,C56*%
X94062706Y-149017121D03*
X93383884Y-148338299D03*
%TD*%
D12*
%TO.C,D90*%
X143004092Y-138773726D03*
X142226274Y-137995908D03*
X141002979Y-139219203D03*
X141780797Y-139997021D03*
%TD*%
D11*
%TO.C,C42*%
X151437294Y-156482879D03*
X152116116Y-157161701D03*
%TD*%
D10*
%TO.C,D69*%
X146495908Y-144726274D03*
X147273726Y-145504092D03*
X148497021Y-144280797D03*
X147719203Y-143502979D03*
%TD*%
D14*
%TO.C,C66*%
X149062706Y-149017121D03*
X148383884Y-148338299D03*
%TD*%
D10*
%TO.C,D113*%
X129995908Y-122726274D03*
X130773726Y-123504092D03*
X131997021Y-122280797D03*
X131219203Y-121502979D03*
%TD*%
D14*
%TO.C,C13*%
X110562706Y-171017121D03*
X109883884Y-170338299D03*
%TD*%
%TO.C,C119*%
X116062706Y-116017121D03*
X115383884Y-115338299D03*
%TD*%
D11*
%TO.C,C28*%
X101937294Y-167482879D03*
X102616116Y-168161701D03*
%TD*%
D10*
%TO.C,D45*%
X135495908Y-155726274D03*
X136273726Y-156504092D03*
X137497021Y-155280797D03*
X136719203Y-154502979D03*
%TD*%
D11*
%TO.C,C77*%
X101937294Y-145482879D03*
X102616116Y-146161701D03*
%TD*%
D14*
%TO.C,C62*%
X127062706Y-149017121D03*
X126383884Y-148338299D03*
%TD*%
%TO.C,C32*%
X99562706Y-160017121D03*
X98883884Y-159338299D03*
%TD*%
D10*
%TO.C,D74*%
X118995908Y-144726274D03*
X119773726Y-145504092D03*
X120997021Y-144280797D03*
X120219203Y-143502979D03*
%TD*%
%TO.C,D42*%
X151995908Y-155726274D03*
X152773726Y-156504092D03*
X153997021Y-155280797D03*
X153219203Y-154502979D03*
%TD*%
D11*
%TO.C,C94*%
X134937294Y-134482879D03*
X135616116Y-135161701D03*
%TD*%
%TO.C,C95*%
X129437294Y-134482879D03*
X130116116Y-135161701D03*
%TD*%
D12*
%TO.C,D81*%
X93504092Y-138773726D03*
X92726274Y-137995908D03*
X91502979Y-139219203D03*
X92280797Y-139997021D03*
%TD*%
D14*
%TO.C,C103*%
X99562706Y-127017121D03*
X98883884Y-126338299D03*
%TD*%
D10*
%TO.C,D94*%
X135495908Y-133726274D03*
X136273726Y-134504092D03*
X137497021Y-133280797D03*
X136719203Y-132502979D03*
%TD*%
D11*
%TO.C,C24*%
X123937294Y-167482879D03*
X124616116Y-168161701D03*
%TD*%
D14*
%TO.C,C83*%
X105062706Y-138017121D03*
X104383884Y-137338299D03*
%TD*%
D12*
%TO.C,D56*%
X93504092Y-149773726D03*
X92726274Y-148995908D03*
X91502979Y-150219203D03*
X92280797Y-150997021D03*
%TD*%
%TO.C,D104*%
X104504092Y-127773726D03*
X103726274Y-126995908D03*
X102502979Y-128219203D03*
X103280797Y-128997021D03*
%TD*%
D11*
%TO.C,C51*%
X101937294Y-156482879D03*
X102616116Y-157161701D03*
%TD*%
%TO.C,C45*%
X134937294Y-156482879D03*
X135616116Y-157161701D03*
%TD*%
D10*
%TO.C,D5*%
X129995908Y-177726274D03*
X130773726Y-178504092D03*
X131997021Y-177280797D03*
X131219203Y-176502979D03*
%TD*%
D14*
%TO.C,C110*%
X138062706Y-127017121D03*
X137383884Y-126338299D03*
%TD*%
D10*
%TO.C,D100*%
X102495908Y-133726274D03*
X103273726Y-134504092D03*
X104497021Y-133280797D03*
X103719203Y-132502979D03*
%TD*%
D11*
%TO.C,C72*%
X129437294Y-145482879D03*
X130116116Y-146161701D03*
%TD*%
D12*
%TO.C,D16*%
X126504092Y-171773726D03*
X125726274Y-170995908D03*
X124502979Y-172219203D03*
X125280797Y-172997021D03*
%TD*%
D11*
%TO.C,C20*%
X145937294Y-167482879D03*
X146616116Y-168161701D03*
%TD*%
D12*
%TO.C,D57*%
X99004092Y-149773726D03*
X98226274Y-148995908D03*
X97002979Y-150219203D03*
X97780797Y-150997021D03*
%TD*%
D11*
%TO.C,C97*%
X118437294Y-134482879D03*
X119116116Y-135161701D03*
%TD*%
D10*
%TO.C,D4*%
X135495908Y-177726274D03*
X136273726Y-178504092D03*
X137497021Y-177280797D03*
X136719203Y-176502979D03*
%TD*%
%TO.C,D26*%
X113495908Y-166726274D03*
X114273726Y-167504092D03*
X115497021Y-166280797D03*
X114719203Y-165502979D03*
%TD*%
%TO.C,D30*%
X91495908Y-166726274D03*
X92273726Y-167504092D03*
X93497021Y-166280797D03*
X92719203Y-165502979D03*
%TD*%
D12*
%TO.C,D91*%
X148504092Y-138773726D03*
X147726274Y-137995908D03*
X146502979Y-139219203D03*
X147280797Y-139997021D03*
%TD*%
D10*
%TO.C,D47*%
X124495908Y-155726274D03*
X125273726Y-156504092D03*
X126497021Y-155280797D03*
X125719203Y-154502979D03*
%TD*%
D17*
%TO.C,D124*%
X126212500Y-184500000D03*
X127787500Y-184500000D03*
%TD*%
D11*
%TO.C,C21*%
X140437294Y-167482879D03*
X141116116Y-168161701D03*
%TD*%
D12*
%TO.C,D38*%
X132004092Y-160773726D03*
X131226274Y-159995908D03*
X130002979Y-161219203D03*
X130780797Y-161997021D03*
%TD*%
%TO.C,D17*%
X132004092Y-171773726D03*
X131226274Y-170995908D03*
X130002979Y-172219203D03*
X130780797Y-172997021D03*
%TD*%
D14*
%TO.C,C108*%
X127062706Y-127017121D03*
X126383884Y-126338299D03*
%TD*%
D10*
%TO.C,D50*%
X107995908Y-155726274D03*
X108773726Y-156504092D03*
X109997021Y-155280797D03*
X109219203Y-154502979D03*
%TD*%
%TO.C,D71*%
X135495908Y-144726274D03*
X136273726Y-145504092D03*
X137497021Y-144280797D03*
X136719203Y-143502979D03*
%TD*%
D12*
%TO.C,D36*%
X121004092Y-160773726D03*
X120226274Y-159995908D03*
X119002979Y-161219203D03*
X119780797Y-161997021D03*
%TD*%
%TO.C,D32*%
X99004092Y-160773726D03*
X98226274Y-159995908D03*
X97002979Y-161219203D03*
X97780797Y-161997021D03*
%TD*%
D14*
%TO.C,C61*%
X121562706Y-149017121D03*
X120883884Y-148338299D03*
%TD*%
D12*
%TO.C,D37*%
X126504092Y-160773726D03*
X125726274Y-159995908D03*
X124502979Y-161219203D03*
X125280797Y-161997021D03*
%TD*%
D11*
%TO.C,C70*%
X140437294Y-145482879D03*
X141116116Y-146161701D03*
%TD*%
D10*
%TO.C,D101*%
X96995908Y-133726274D03*
X97773726Y-134504092D03*
X98997021Y-133280797D03*
X98219203Y-132502979D03*
%TD*%
D11*
%TO.C,C52*%
X96437294Y-156482879D03*
X97116116Y-157161701D03*
%TD*%
D12*
%TO.C,D12*%
X104504092Y-171773726D03*
X103726274Y-170995908D03*
X102502979Y-172219203D03*
X103280797Y-172997021D03*
%TD*%
%TO.C,D121*%
X126504092Y-116773726D03*
X125726274Y-115995908D03*
X124502979Y-117219203D03*
X125280797Y-117997021D03*
%TD*%
D10*
%TO.C,D95*%
X129995908Y-133726274D03*
X130773726Y-134504092D03*
X131997021Y-133280797D03*
X131219203Y-132502979D03*
%TD*%
%TO.C,D79*%
X91495908Y-144726274D03*
X92273726Y-145504092D03*
X93497021Y-144280797D03*
X92719203Y-143502979D03*
%TD*%
D11*
%TO.C,C50*%
X107437294Y-156482879D03*
X108116116Y-157161701D03*
%TD*%
D10*
%TO.C,D25*%
X118995908Y-166726274D03*
X119773726Y-167504092D03*
X120997021Y-166280797D03*
X120219203Y-165502979D03*
%TD*%
D11*
%TO.C,C78*%
X96437294Y-145482879D03*
X97116116Y-146161701D03*
%TD*%
D14*
%TO.C,C82*%
X99562706Y-138017121D03*
X98883884Y-137338299D03*
%TD*%
D10*
%TO.C,D98*%
X113495908Y-133726274D03*
X114273726Y-134504092D03*
X115497021Y-133280797D03*
X114719203Y-132502979D03*
%TD*%
%TO.C,D99*%
X107995908Y-133726274D03*
X108773726Y-134504092D03*
X109997021Y-133280797D03*
X109219203Y-132502979D03*
%TD*%
D11*
%TO.C,C98*%
X112937294Y-134482879D03*
X113616116Y-135161701D03*
%TD*%
D10*
%TO.C,D44*%
X140995908Y-155726274D03*
X141773726Y-156504092D03*
X142997021Y-155280797D03*
X142219203Y-154502979D03*
%TD*%
D14*
%TO.C,C14*%
X116062706Y-171017121D03*
X115383884Y-170338299D03*
%TD*%
D18*
%TO.C,SW1*%
X118323225Y-176620963D03*
X117315597Y-177628591D03*
X116307969Y-178636219D03*
X123379037Y-181676775D03*
X122371409Y-182684403D03*
X121363781Y-183692031D03*
D19*
X122707285Y-177292715D03*
X116979721Y-183020279D03*
D20*
X121187006Y-178812994D03*
D21*
X118500000Y-181500000D03*
%TD*%
D14*
%TO.C,C89*%
X138062706Y-138017121D03*
X137383884Y-137338299D03*
%TD*%
D12*
%TO.C,D40*%
X143004092Y-160773726D03*
X142226274Y-159995908D03*
X141002979Y-161219203D03*
X141780797Y-161997021D03*
%TD*%
D10*
%TO.C,D114*%
X124495908Y-122726274D03*
X125273726Y-123504092D03*
X126497021Y-122280797D03*
X125719203Y-121502979D03*
%TD*%
D14*
%TO.C,C84*%
X110562706Y-138017121D03*
X109883884Y-137338299D03*
%TD*%
%TO.C,C19*%
X143562706Y-171017121D03*
X142883884Y-170338299D03*
%TD*%
D12*
%TO.C,D11*%
X99004092Y-171773726D03*
X98226274Y-170995908D03*
X97002979Y-172219203D03*
X97780797Y-172997021D03*
%TD*%
D14*
%TO.C,C105*%
X110562706Y-127017121D03*
X109883884Y-126338299D03*
%TD*%
D12*
%TO.C,D15*%
X121004092Y-171773726D03*
X120226274Y-170995908D03*
X119002979Y-172219203D03*
X119780797Y-172997021D03*
%TD*%
D14*
%TO.C,C81*%
X94062706Y-138017121D03*
X93383884Y-137338299D03*
%TD*%
D11*
%TO.C,C25*%
X118437294Y-167482879D03*
X119116116Y-168161701D03*
%TD*%
%TO.C,C29*%
X96437294Y-167482879D03*
X97116116Y-168161701D03*
%TD*%
D10*
%TO.C,D24*%
X124495908Y-166726274D03*
X125273726Y-167504092D03*
X126497021Y-166280797D03*
X125719203Y-165502979D03*
%TD*%
D11*
%TO.C,C99*%
X107437294Y-134482879D03*
X108116116Y-135161701D03*
%TD*%
D12*
%TO.C,D120*%
X121004092Y-116773726D03*
X120226274Y-115995908D03*
X119002979Y-117219203D03*
X119780797Y-117997021D03*
%TD*%
D11*
%TO.C,C112*%
X134937294Y-123482879D03*
X135616116Y-124161701D03*
%TD*%
D12*
%TO.C,D87*%
X126504092Y-138773726D03*
X125726274Y-137995908D03*
X124502979Y-139219203D03*
X125280797Y-139997021D03*
%TD*%
%TO.C,D103*%
X99004092Y-127773726D03*
X98226274Y-126995908D03*
X97002979Y-128219203D03*
X97780797Y-128997021D03*
%TD*%
D10*
%TO.C,D68*%
X151995908Y-144726274D03*
X152773726Y-145504092D03*
X153997021Y-144280797D03*
X153219203Y-143502979D03*
%TD*%
D13*
%TO.C,R3*%
X126490000Y-183000000D03*
X127510000Y-183000000D03*
%TD*%
D10*
%TO.C,D10*%
X102495908Y-177726274D03*
X103273726Y-178504092D03*
X104497021Y-177280797D03*
X103719203Y-176502979D03*
%TD*%
D12*
%TO.C,D110*%
X137504092Y-127773726D03*
X136726274Y-126995908D03*
X135502979Y-128219203D03*
X136280797Y-128997021D03*
%TD*%
D10*
%TO.C,D115*%
X118995908Y-122726274D03*
X119773726Y-123504092D03*
X120997021Y-122280797D03*
X120219203Y-121502979D03*
%TD*%
D12*
%TO.C,D107*%
X121004092Y-127773726D03*
X120226274Y-126995908D03*
X119002979Y-128219203D03*
X119780797Y-128997021D03*
%TD*%
D10*
%TO.C,D112*%
X135495908Y-122726274D03*
X136273726Y-123504092D03*
X137497021Y-122280797D03*
X136719203Y-121502979D03*
%TD*%
D12*
%TO.C,D62*%
X126504092Y-149773726D03*
X125726274Y-148995908D03*
X124502979Y-150219203D03*
X125280797Y-150997021D03*
%TD*%
D14*
%TO.C,C17*%
X132562706Y-171017121D03*
X131883884Y-170338299D03*
%TD*%
D11*
%TO.C,C92*%
X145937294Y-134482879D03*
X146616116Y-135161701D03*
%TD*%
D14*
%TO.C,C111*%
X143562706Y-127017121D03*
X142883884Y-126338299D03*
%TD*%
D11*
%TO.C,C101*%
X96437294Y-134482879D03*
X97116116Y-135161701D03*
%TD*%
D10*
%TO.C,D97*%
X118995908Y-133726274D03*
X119773726Y-134504092D03*
X120997021Y-133280797D03*
X120219203Y-132502979D03*
%TD*%
D12*
%TO.C,D19*%
X143004092Y-171773726D03*
X142226274Y-170995908D03*
X141002979Y-172219203D03*
X141780797Y-172997021D03*
%TD*%
D16*
%TO.C,C123*%
X94593091Y-169933100D03*
X94593091Y-168973100D03*
%TD*%
D10*
%TO.C,D29*%
X96995908Y-166726274D03*
X97773726Y-167504092D03*
X98997021Y-166280797D03*
X98219203Y-165502979D03*
%TD*%
%TO.C,D20*%
X146495908Y-166726274D03*
X147273726Y-167504092D03*
X148497021Y-166280797D03*
X147719203Y-165502979D03*
%TD*%
D12*
%TO.C,D39*%
X137504092Y-160773726D03*
X136726274Y-159995908D03*
X135502979Y-161219203D03*
X136280797Y-161997021D03*
%TD*%
%TO.C,D55*%
X88004092Y-149773726D03*
X87226274Y-148995908D03*
X86002979Y-150219203D03*
X86780797Y-150997021D03*
%TD*%
D14*
%TO.C,C59*%
X110562706Y-149017121D03*
X109883884Y-148338299D03*
%TD*%
D12*
%TO.C,D84*%
X110004092Y-138773726D03*
X109226274Y-137995908D03*
X108002979Y-139219203D03*
X108780797Y-139997021D03*
%TD*%
D11*
%TO.C,C71*%
X134937294Y-145482879D03*
X135616116Y-146161701D03*
%TD*%
D14*
%TO.C,C109*%
X132562706Y-127017121D03*
X131883884Y-126338299D03*
%TD*%
D12*
%TO.C,D65*%
X143004092Y-149773726D03*
X142226274Y-148995908D03*
X141002979Y-150219203D03*
X141780797Y-150997021D03*
%TD*%
D11*
%TO.C,C27*%
X107437294Y-167482879D03*
X108116116Y-168161701D03*
%TD*%
D14*
%TO.C,C18*%
X138062706Y-171017121D03*
X137383884Y-170338299D03*
%TD*%
%TO.C,C85*%
X116062706Y-138017121D03*
X115383884Y-137338299D03*
%TD*%
D11*
%TO.C,C114*%
X123937294Y-123482879D03*
X124616116Y-124161701D03*
%TD*%
D13*
%TO.C,R2*%
X110990001Y-182500000D03*
X112009999Y-182500000D03*
%TD*%
D12*
%TO.C,D89*%
X137504092Y-138773726D03*
X136726274Y-137995908D03*
X135502979Y-139219203D03*
X136280797Y-139997021D03*
%TD*%
D14*
%TO.C,C63*%
X132562706Y-149017121D03*
X131883884Y-148338299D03*
%TD*%
%TO.C,C33*%
X105062706Y-160017121D03*
X104383884Y-159338299D03*
%TD*%
D17*
%TO.C,D122*%
X110712499Y-184000000D03*
X112287501Y-184000000D03*
%TD*%
D12*
%TO.C,D41*%
X148504092Y-160773726D03*
X147726274Y-159995908D03*
X146502979Y-161219203D03*
X147280797Y-161997021D03*
%TD*%
%TO.C,D13*%
X110004092Y-171773726D03*
X109226274Y-170995908D03*
X108002979Y-172219203D03*
X108780797Y-172997021D03*
%TD*%
D10*
%TO.C,D102*%
X91495908Y-133726274D03*
X92273726Y-134504092D03*
X93497021Y-133280797D03*
X92719203Y-132502979D03*
%TD*%
D12*
%TO.C,D108*%
X126504092Y-127773726D03*
X125726274Y-126995908D03*
X124502979Y-128219203D03*
X125280797Y-128997021D03*
%TD*%
D11*
%TO.C,C23*%
X129437294Y-167482879D03*
X130116116Y-168161701D03*
%TD*%
%TO.C,C53*%
X90937294Y-156482879D03*
X91616116Y-157161701D03*
%TD*%
D12*
%TO.C,D66*%
X148504092Y-149773726D03*
X147726274Y-148995908D03*
X146502979Y-150219203D03*
X147280797Y-150997021D03*
%TD*%
%TO.C,D119*%
X115504092Y-116773726D03*
X114726274Y-115995908D03*
X113502979Y-117219203D03*
X114280797Y-117997021D03*
%TD*%
D10*
%TO.C,D77*%
X102495908Y-144726274D03*
X103273726Y-145504092D03*
X104497021Y-144280797D03*
X103719203Y-143502979D03*
%TD*%
D11*
%TO.C,C79*%
X90937294Y-145482879D03*
X91616116Y-146161701D03*
%TD*%
%TO.C,C4*%
X134937294Y-178482879D03*
X135616116Y-179161701D03*
%TD*%
%TO.C,C96*%
X123937294Y-134482879D03*
X124616116Y-135161701D03*
%TD*%
D14*
%TO.C,C64*%
X138062706Y-149017121D03*
X137383884Y-148338299D03*
%TD*%
D12*
%TO.C,D88*%
X132004092Y-138773726D03*
X131226274Y-137995908D03*
X130002979Y-139219203D03*
X130780797Y-139997021D03*
%TD*%
D10*
%TO.C,D76*%
X107995908Y-144726274D03*
X108773726Y-145504092D03*
X109997021Y-144280797D03*
X109219203Y-143502979D03*
%TD*%
%TO.C,D116*%
X113495908Y-122726274D03*
X114273726Y-123504092D03*
X115497021Y-122280797D03*
X114719203Y-121502979D03*
%TD*%
D11*
%TO.C,C49*%
X112937294Y-156482879D03*
X113616116Y-157161701D03*
%TD*%
D10*
%TO.C,D51*%
X102495908Y-155726274D03*
X103273726Y-156504092D03*
X104497021Y-155280797D03*
X103719203Y-154502979D03*
%TD*%
%TO.C,D43*%
X146495908Y-155726274D03*
X147273726Y-156504092D03*
X148497021Y-155280797D03*
X147719203Y-154502979D03*
%TD*%
D11*
%TO.C,C68*%
X151437294Y-145482879D03*
X152116116Y-146161701D03*
%TD*%
D14*
%TO.C,C55*%
X88562706Y-149017121D03*
X87883884Y-148338299D03*
%TD*%
D11*
%TO.C,C74*%
X118437294Y-145482879D03*
X119116116Y-146161701D03*
%TD*%
D12*
%TO.C,D60*%
X115504092Y-149773726D03*
X114726274Y-148995908D03*
X113502979Y-150219203D03*
X114280797Y-150997021D03*
%TD*%
%TO.C,D67*%
X154004092Y-149773726D03*
X153226274Y-148995908D03*
X152002979Y-150219203D03*
X152780797Y-150997021D03*
%TD*%
D11*
%TO.C,C46*%
X129437294Y-156482879D03*
X130116116Y-157161701D03*
%TD*%
D14*
%TO.C,C88*%
X132562706Y-138017121D03*
X131883884Y-137338299D03*
%TD*%
%TO.C,C39*%
X138062706Y-160017121D03*
X137383884Y-159338299D03*
%TD*%
%TO.C,C86*%
X121562706Y-138017121D03*
X120883884Y-137338299D03*
%TD*%
D11*
%TO.C,C44*%
X140437294Y-156482879D03*
X141116116Y-157161701D03*
%TD*%
%TO.C,C47*%
X123937294Y-156482879D03*
X124616116Y-157161701D03*
%TD*%
D10*
%TO.C,D48*%
X118995908Y-155726274D03*
X119773726Y-156504092D03*
X120997021Y-155280797D03*
X120219203Y-154502979D03*
%TD*%
D14*
%TO.C,C41*%
X149062706Y-160017121D03*
X148383884Y-159338299D03*
%TD*%
D11*
%TO.C,C80*%
X85437294Y-145482879D03*
X86116116Y-146161701D03*
%TD*%
D12*
%TO.C,D85*%
X115504092Y-138773726D03*
X114726274Y-137995908D03*
X113502979Y-139219203D03*
X114280797Y-139997021D03*
%TD*%
D10*
%TO.C,D21*%
X140995908Y-166726274D03*
X141773726Y-167504092D03*
X142997021Y-166280797D03*
X142219203Y-165502979D03*
%TD*%
D14*
%TO.C,C58*%
X105062706Y-149017121D03*
X104383884Y-148338299D03*
%TD*%
D10*
%TO.C,D92*%
X146495908Y-133726274D03*
X147273726Y-134504092D03*
X148497021Y-133280797D03*
X147719203Y-132502979D03*
%TD*%
M02*
