M48
; DRILL file KiCad 10.0.0 date 2026-08-17T00:00:17
; FORMAT={-:-/ absolute / metric / decimal}
; #@! TF.CreationDate,2026-08-17T00:00:17-04:00
; #@! TF.GenerationSoftware,Kicad,Pcbnew,10.0.0
; #@! TF.FileFunction,MixedPlating,1,2
FMAT,2
METRIC
; #@! TA.AperFunction,Plated,PTH,ViaDrill
T1C0.300
; #@! TA.AperFunction,Plated,PTH,ViaDrill
T2C0.400
; #@! TA.AperFunction,Plated,PTH,ComponentDrill
T3C0.762
; #@! TA.AperFunction,Plated,PTH,ComponentDrill
T4C1.041
%
G90
G05
T1
X86.0Y-144.5
X86.0Y-150.5
X86.0Y-155.5
X91.5Y-133.5
X91.5Y-139.0
X91.5Y-161.5
X91.5Y-166.5
X97.0Y-128.0
X97.0Y-172.5
X102.5Y-122.5
X102.5Y-177.5
X113.5Y-117.0
X116.0Y-178.5
X117.0Y-177.5
X118.0Y-176.5
X121.0Y-183.5
X123.0Y-181.5
X130.5Y-182.0
X133.5Y-183.0
X137.5Y-122.5
X137.5Y-177.5
X143.0Y-128.0
X143.274Y-171.821
X148.5Y-133.5
X148.5Y-139.0
X148.5Y-166.5
X148.504Y-160.774
X154.0Y-144.5
X154.0Y-150.0
X154.0Y-155.5
T2
X86.116Y-146.162
X86.116Y-157.162
X86.5Y-161.5
X87.5Y-160.554
X87.884Y-148.338
X88.002Y-166.063
X88.95Y-162.45
X89.0Y-158.15
X89.0Y-165.0
X89.0Y-166.0
X91.616Y-135.162
X91.616Y-146.162
X91.616Y-157.162
X91.616Y-168.162
X92.51Y-171.99
X93.384Y-137.338
X93.384Y-148.338
X93.384Y-159.338
X97.116Y-135.162
X97.116Y-146.162
X97.116Y-157.162
X97.116Y-168.162
X98.884Y-126.338
X98.884Y-137.338
X98.884Y-148.338
X98.884Y-159.338
X98.884Y-170.338
X102.585Y-179.192
X102.616Y-124.162
X102.616Y-135.162
X102.616Y-146.162
X102.616Y-157.162
X102.616Y-168.162
X104.384Y-126.338
X104.384Y-137.338
X104.384Y-148.338
X104.384Y-159.338
X104.384Y-170.338
X108.116Y-124.162
X108.116Y-135.162
X108.116Y-146.162
X108.116Y-157.162
X108.116Y-168.162
X108.116Y-179.162
X109.884Y-126.338
X109.884Y-137.338
X109.884Y-148.338
X109.884Y-159.338
X109.884Y-170.338
X110.0Y-184.5
X113.616Y-124.162
X113.616Y-135.162
X113.616Y-146.162
X113.616Y-157.162
X113.987Y-168.261
X115.384Y-115.338
X115.384Y-126.338
X115.384Y-137.338
X115.384Y-148.338
X115.384Y-159.338
X115.384Y-170.338
X119.116Y-124.162
X119.116Y-135.162
X119.116Y-146.162
X119.116Y-157.162
X119.116Y-168.162
X120.884Y-115.338
X120.884Y-126.338
X120.884Y-137.338
X120.884Y-148.338
X120.884Y-159.338
X120.884Y-170.338
X121.929Y-182.429
X124.616Y-124.162
X124.616Y-135.162
X124.616Y-146.162
X124.616Y-157.162
X124.616Y-168.162
X126.202Y-170.367
X126.384Y-115.338
X126.384Y-126.338
X126.384Y-137.338
X126.384Y-148.338
X126.384Y-159.338
X130.116Y-124.162
X130.116Y-135.162
X130.116Y-146.162
X130.116Y-157.162
X130.2Y-168.192
X130.5Y-179.5
X131.0Y-181.0
X131.0Y-183.0
X131.884Y-126.338
X131.884Y-137.338
X131.884Y-148.338
X131.884Y-159.338
X131.884Y-170.338
X133.5Y-181.0
X134.498Y-182.033
X135.616Y-124.162
X135.616Y-135.162
X135.616Y-146.162
X135.616Y-157.162
X135.616Y-168.162
X135.616Y-179.162
X137.384Y-126.338
X137.384Y-137.338
X137.384Y-148.338
X137.384Y-159.338
X137.384Y-170.338
X141.116Y-135.162
X141.116Y-146.162
X141.116Y-157.162
X141.116Y-168.162
X141.774Y-156.504
X142.884Y-126.338
X142.884Y-137.338
X142.884Y-148.338
X142.884Y-159.338
X142.884Y-170.338
X146.438Y-168.339
X146.616Y-135.162
X146.616Y-146.162
X146.616Y-157.162
X148.384Y-137.338
X148.384Y-148.338
X148.384Y-159.338
X152.116Y-146.162
X152.116Y-157.162
X153.884Y-148.338
T3
X121.187Y-178.813
T4
X118.5Y-181.5
M30
